<?xml version="1.0" encoding="UTF-8" standalone="no"?>
<svg
   xmlns:dc="http://purl.org/dc/elements/1.1/"
   xmlns:cc="http://creativecommons.org/ns#"
   xmlns:rdf="http://www.w3.org/1999/02/22-rdf-syntax-ns#"
   xmlns:svg="http://www.w3.org/2000/svg"
   xmlns="http://www.w3.org/2000/svg"
   xmlns:sodipodi="http://sodipodi.sourceforge.net/DTD/sodipodi-0.dtd"
   xmlns:inkscape="http://www.inkscape.org/namespaces/inkscape"
   sodipodi:docname="empty_map.svg"
   id="svg8"
   version="1.1"
   viewBox="0 0 2157.0659 1649.7107"
   height="1649.7107mm"
   width="2157.0659mm"
   inkscape:version="1.0.1 (3bc2e813f5, 2020-09-07)">
  <defs
     id="defs2">
    <rect
       x="-596.31001"
       y="696.15711"
       width="185.96428"
       height="140.60714"
       id="rect923" />
    <inkscape:path-effect
       effect="roughen"
       id="path-effect1010"
       is_visible="true"
       lpeversion="1"
       method="segments"
       max_segment_size="6.75"
       segments="2"
       displace_x="10;1"
       displace_y="10;1"
       global_randomize="1;691409338"
       handles="along"
       shift_nodes="true"
       fixed_displacement="true"
       spray_tool_friendly="true" />
    <inkscape:path-effect
       effect="roughen"
       id="path-effect929"
       is_visible="true"
       lpeversion="1"
       method="size"
       max_segment_size="5"
       segments="2"
       displace_x="10;1"
       displace_y="10;1"
       global_randomize="1;691409088"
       handles="along"
       shift_nodes="true"
       fixed_displacement="true"
       spray_tool_friendly="true" />
    <inkscape:path-effect
       effect="simplify"
       id="path-effect853"
       is_visible="true"
       lpeversion="1"
       steps="1"
       threshold="0.0001"
       smooth_angles="360"
       helper_size="0"
       simplify_individual_paths="false"
       simplify_just_coalesce="false" />
    <rect
       x="-596.31"
       y="696.1571"
       width="185.96428"
       height="140.60715"
       id="rect923-1" />
    <rect
       x="-596.31"
       y="696.1571"
       width="185.96428"
       height="140.60715"
       id="rect955" />
  </defs>
  <sodipodi:namedview
     id="base"
     pagecolor="#ffffff"
     bordercolor="#666666"
     borderopacity="1.0"
     inkscape:pageopacity="0.0"
     inkscape:pageshadow="2"
     inkscape:zoom="0.175"
     inkscape:cx="4076.3439"
     inkscape:cy="919.46829"
     inkscape:document-units="mm"
     inkscape:current-layer="layer1"
     inkscape:document-rotation="0"
     showgrid="false"
     inkscape:snap-global="false"
     inkscape:window-width="1920"
     inkscape:window-height="1001"
     inkscape:window-x="-9"
     inkscape:window-y="-9"
     inkscape:window-maximized="1"
     fit-margin-top="0"
     fit-margin-left="0"
     fit-margin-right="0"
     fit-margin-bottom="0" />
  <metadata
     id="metadata5">
    <rdf:RDF>
      <cc:Work
         rdf:about="">
        <dc:format>image/svg+xml</dc:format>
        <dc:type
           rdf:resource="http://purl.org/dc/dcmitype/StillImage" />
        <dc:title />
      </cc:Work>
    </rdf:RDF>
  </metadata>
  <g
     inkscape:label="レイヤー 1"
     inkscape:groupmode="layer"
     id="layer1"
     transform="translate(1040.81, 619.2)">
    <path
       style="fill:#d3fff8;fill-opacity:1;stroke-width:0.298;stroke-linecap:square;paint-order:stroke markers fill"
       id="rect847"
       width="2157.0659"
       height="1649.7107"
       x="-1040.8103"
       y="-619.20001"
       sodipodi:type="rect"
       d="M -1040.8103,-619.20001 H 1116.2556 V 1030.5107 h -2157.0659 z" />
    <path
       style="fill:none;stroke:#000000;stroke-width:0.264583px;stroke-linecap:butt;stroke-linejoin:miter;stroke-opacity:1"
       d="M -16.456687,-72.137252 C -60.525651,-100.83406 -104.59457,-129.53094 -148.66353,-158.22775"
       id="path851"
       inkscape:path-effect="#path-effect853"
       inkscape:original-d="M -16.456687,-72.137252 C -60.525637,-100.83405 -104.59459,-129.53095 -148.66353,-158.22775" />
    <path
       style="fill:#5fd3cd;fill-opacity:1;stroke:#000000;stroke-width:1.8;stroke-linecap:butt;stroke-linejoin:miter;stroke-miterlimit:4;stroke-dasharray:none;stroke-opacity:1"
       d="m 801.43128,332.23957 c -1.69702,0.0261 -1.88221,1.76519 -3.55836,2.22492 -1.67615,0.45974 -8.29093,7.66109 -9.81946,8.31525 -2.06654,0.88441 1.52466,-3.77313 -0.57741,-2.87535 -0.25981,1.09925 -0.56838,0.15997 -2.58463,0.12005 -2.01625,-0.0399 -2.88115,2.79273 -4.2184,3.28095 -3.23052,-1.77604 -2.66159,-0.63493 -4.75824,0.36376 -1.01354,-0.54755 -6.70119,-4.64545 -8.99904,-3.18044 -2.29785,1.46501 -9.1124,8.44942 -10.34544,9.29411 -3.01873,3.22724 4.13616,-1.30016 3.09569,-0.75903 -2.06003,1.07139 -1.44366,0.52666 -3.8473,1.60032 -0.58842,2.41563 -0.0453,2.42332 -0.47194,4.89078 1.1124,1.22658 -14.53759,7.90103 -14.97361,11.13261 -2.34833,0.60577 2.05841,3.42661 1.76317,6.81252 -1.20159,0.20913 2.23463,7.22065 2.02795,10.95424 0.96731,0.21216 2.35115,-0.42058 1.72451,0.58169 -0.62665,1.00228 -1.24916,3.14009 -1.46836,4.98281 -1.44461,0.2995 -0.54944,3.41049 0.42171,5.47134 0.97115,2.06085 -0.36439,3.14986 -0.47614,4.85345 3.00398,3.34058 0.1665,2.35496 -0.38148,4.56641 0.78425,1.67036 -0.73247,5.26213 -0.47012,6.93619 0.26239,1.67406 0.97324,3.1182 0.2445,4.22706 -1.49109,2.2689 -4.0881,2.56162 -4.81356,4.46912 -0.85637,2.25173 0.84689,2.62017 -0.36903,4.67133 0.87215,1.99302 4.70957,3.6911 2.64968,6.06281 -0.75752,-0.39141 -2.30515,4.75029 -4.72781,6.47538 -2.42265,1.7251 -3.63677,-0.97876 -4.68002,0.40516 -4.61933,1.79811 -2.89343,6.22949 -3.44557,8.0209 -0.35801,1.16154 -0.52795,1.63838 -0.87366,3.22614 -0.3457,1.58776 -7.24549,2.99056 -7.83402,3.96086 -1.22062,2.01245 3.24631,3.59622 1.92345,5.42019 -3.42005,1.64963 -2.8285,0.7725 -3.68908,2.27731 0.13828,3.21561 -14.92291,8.69619 -16.12066,10.33229 -1.24087,1.695 11.18655,1.01237 10.1366,3.36975 -0.86692,1.94644 -6.60553,1.40909 -6.36321,3.74562 1.94355,3.37023 8.16043,8.78512 8.4412,10.52781 0.36627,2.27327 -5.48791,3.48218 -4.61166,5.59709 0.50339,1.21497 -0.58086,2.34385 0.28045,4.16316 0.8613,1.81931 8.4087,5.31519 8.64867,6.8261 0.47994,3.02182 -0.79362,0.79151 -1.14456,3.38467 -0.16103,1.18989 -1.69325,-0.53624 -2.27893,1.0179 -0.58568,1.55415 2.6155,7.59372 2.3745,8.80786 -1.23043,3.95192 -1.02728,0.95704 -1.4046,2.60071 -0.2243,3.70789 -5.38262,8.56918 -5.91577,10.47227 0.27154,0.77525 1.76029,-1.96004 1.64309,0.0885 -0.11723,2.04856 3.82238,8.6835 3.24403,10.20161 0.40944,4.86301 -3.05039,1.58058 -3.93646,3.13819 -1.07635,0.31828 -1.18832,-0.0596 -2.68091,1.53943 -1.49259,1.59899 -1.84591,4.33233 -2.39687,5.69666 -0.90286,2.2357 -7.12409,-1.52142 -7.94303,0.77624 -0.8115,2.27683 3.73509,8.1407 2.88984,10.49672 -1.54844,0.68981 -7.91898,1.71248 -8.09201,3.20223 -0.17303,1.48975 1.21601,3.95371 0.80367,5.22617 1.3353,3.84066 1.94234,2.49821 1.13578,4.58438 -0.0812,0.48023 -1.57187,-0.63043 -1.69316,1.31432 -0.12128,1.94475 -0.0867,2.56165 -0.83223,4.11307 1.68632,4.16144 2.58712,14.19421 0.84052,16.28349 0.84489,2.00065 -2.14892,1.72685 -4.768,3.81848 -1.02466,0.81831 -6.18475,2.53583 -7.7704,3.59174 -1.58565,1.05591 -2.56982,-0.28336 -3.14072,0.5165 -1.39934,1.96053 0.40303,-0.64024 -1.39055,0.59905 -0.76107,-0.41049 0.0521,0.18885 -1.42883,2.23088 -1.48092,2.04204 -1.1028,8.0974 -2.26391,8.98121 -1.8714,1.42446 -6.22372,-3.74903 -7.95898,-2.52294 -1.08788,0.76866 1.8457,7.86223 1.03169,9.60422 -0.81402,1.74199 -1.50269,1.18504 -2.61676,1.93027 -1.39399,3.93913 -1.21976,-0.0521 -3.26033,1.21302 -0.43187,0.33637 -8.63576,-2.24283 -11.51653,-1.75638 -2.88078,0.48646 1.68817,5.69509 0.13362,6.57597 -4.53183,-1.37824 -2.76645,-3.24909 -4.87727,-2.01551 -0.9528,-0.27171 -1.86156,3.54184 -4.4376,4.25064 -2.57604,0.7088 -5.21458,-3.99941 -6.67648,-3.07494 -2.10132,-0.68701 -12.28243,1.61412 -14.12742,3.62451 -1.84499,2.01039 0.4233,2.49187 -0.73499,3.35686 -3.53494,3.07426 2.99007,7.17173 1.6159,8.25593 -1.10738,1.00059 -10.94335,-1.82146 -13.50428,0.26708 -0.18051,-0.13926 -0.15889,0.067 -1.91203,2.39665 -1.75314,2.32967 -5.41877,4.09873 -6.9602,5.36392 -3.66186,4.02972 4.92662,3.92646 3.89585,4.60084 -2.3758,1.55436 -12.0888,-3.3326 -14.77318,-1.66951 -2.21418,1.37178 1.51131,10.88309 -0.71459,12.26959 -0.73408,-0.21518 0.19856,-5.64672 -1.62243,-5.7401 -1.82099,-0.0934 -2.71834,3.18436 -4.17717,4.11463 -1.66676,-0.85069 -12.06189,-1.12345 -14.32137,-0.15216 -2.25948,0.97128 3.28172,5.77781 2.00272,6.65769 -4.65764,0.39436 -0.66067,-0.33757 -2.30378,0.88047 -0.5438,2.68755 -0.17531,5.25935 -2.54538,7.04838 0.0538,0.63969 -1.05662,-0.56206 -3.52791,-0.56057 -2.47128,10e-4 -14.01663,0.0164 -15.49513,1.07745 -1.51179,-0.83643 -1.86238,2.41794 -3.34123,4.42604 -1.47884,2.00809 2.26673,5.27794 0.955,6.34227 -3.67229,3.20669 -10.98087,-3.29616 -12.12752,-2.35435 -3.38876,0.94536 -0.33038,3.46284 -2.03532,5.05592 -0.0674,0.33353 -2.73395,4.48588 -4.24248,6.60993 -1.50853,2.12405 2.89055,3.23368 1.51086,4.31167 -2.15683,1.6852 -1.68565,5.13238 -3.74266,6.27591 -1.99306,1.10796 -9.02919,-4.5796 -11.08741,-3.9097 -0.48375,1.22461 1.84375,8.54484 -0.0733,9.34386 -1.91708,0.79902 -4.75509,-5.28143 -6.06759,-5.18404 -3.90483,0.6844 -8.00299,4.10263 -9.32064,4.06714 -0.6615,0.20955 1.57589,0.72014 -0.12675,0.19206 -1.70264,-0.52812 -5.59764,1.3858 -6.94365,1.1769 -3.90722,-1.57402 -4.42132,-3.09488 -5.64415,-3.10196 -2.06537,-0.0119 0.66361,-1.09194 -2.09039,-1.07504 -1.25236,0.008 -2.62577,5.19111 -4.82102,5.82324 -2.19525,0.63213 -2.09347,-2.02457 -3.36011,-2.06461 -4.1017,1.14331 -13.42651,1.68276 -15.18864,1.57338 -1.23336,0.81755 -0.55131,0.99883 -1.97871,0.56503 -1.4274,-0.43379 0.57242,-0.93259 -0.73135,-1.08321 -4.47886,-0.15004 -3.12874,-4.38734 -4.45506,-4.40337 -2.17512,-0.0263 -0.62765,1.98837 -3.71045,3.30277 -1.20031,0.51177 -1.52436,3.41181 -3.39285,4.75068 -1.86848,1.33886 -3.44677,2.64099 -4.49584,3.48155 -2.257,3.85462 -10.86517,-5.04199 -12.21123,-3.7164 -1.10313,0.0781 3.28614,1.93858 2.95516,4.71435 -0.33097,2.77577 -8.69358,11.56378 -9.44931,13.06769 -1.21066,2.40922 7.24104,-1.25695 6.38571,1.12251 -0.83606,2.32586 -6.62403,5.85761 -7.39195,8.66227 -0.38397,1.40234 -0.6294,4.15027 -0.59617,5.95205 0.0332,1.80178 0.87126,0.38748 1.3759,1.5134 0.49586,1.1063 2.94402,7.59329 4.32843,9.14181 1.38441,1.54852 5.56355,-3.01834 6.2109,-2.14771 2.67587,2.62381 -2.27918,2.21364 -1.39323,3.14202 2.76912,1.10606 1.59469,4.56351 2.97379,5.87545 0.70736,0.67292 1.59087,-1.24938 3.28548,-0.16814 1.69462,1.08123 8.75018,8.23951 9.94005,8.98208 1.78277,1.1126 3.0242,-0.69885 4.01797,-1.53396 0.99377,-0.83511 4.00515,-7.31671 5.40437,-7.94741 2.25569,-1.01676 3.83294,-1.17846 6.12583,-1.94691 1.68456,0.6927 0.43345,0.97611 1.63422,0.75929 1.20078,-0.21682 7.18201,-1.08443 8.22704,-1.39614 3.76667,-0.967 -1.73863,0.86986 -0.19749,0.44844 1.3606,0.0603 6.93475,-3.55805 9.77938,-4.26795 2.25642,2.21708 4.59333,1.83787 7.40094,0.70757 2.05881,1.88068 -0.7723,5.54553 1.86547,3.91055 2.10251,-1.30321 18.2558,-2.0305 20.29653,-2.35143 2.57062,-0.40425 -1.80708,-4.58908 0.75855,-4.9754 0.76723,-1.31818 -1.5513,-3.08629 0.0324,-3.58047 1.58367,-0.49419 3.12156,-1.91656 4.61208,-2.06592 1.72288,-1.45966 9.42253,0.32565 11.06703,1.18278 1.6445,0.85714 0.70456,1.16192 1.78931,1.1339 3.8485,1.18812 -0.61395,2.89952 1.34731,2.90789 3.07898,1.90091 13.49828,-6.61045 15.78064,-6.68288 2.35593,-2.39623 1.83768,5.94678 4.60466,6.23406 0.84815,2.27762 -2.68016,0.58239 0.69999,0.38135 1.33487,-0.0794 8.9929,-3.09882 11.95692,-2.6942 2.96402,0.40461 -1.2346,2.35684 -0.0454,2.42904 2.45987,0.14936 2.07832,8.50999 4.51395,8.64345 0.64147,0.9735 1.09656,-4.38513 3.52614,-5.76173 2.42958,-1.3766 14.4451,0.88258 15.93069,0.92697 3.1385,-2.71796 2.67378,-6.43791 4.75595,-6.37407 3.43265,-1.39088 1.67462,2.6398 3.57382,2.71402 0.56085,0.2893 -1.03761,0.97983 1.17796,1.18311 2.21557,0.20329 3.2488,-0.53559 4.7484,-0.48509 4.37159,0.33605 6.12647,-3.09191 7.48508,-3.05761 0.77286,-0.23765 4.12177,0.19696 5.76109,-0.0262 1.63931,-0.22311 1.67518,3.66057 3.06371,3.67574 2.91392,-2.68555 11.18537,-6.98579 13.38533,-6.85357 3.60253,-1.44875 -5.63741,6.5645 -3.73333,6.81551 2.06972,2.26039 9.46694,3.44516 11.77928,3.42241 0.17362,0.13932 -2.44503,-1.61847 -0.51304,-2.88394 1.93198,-1.26542 2.41748,-6.33696 4.1379,-6.57445 2.5326,-0.3496 10.88094,9.89604 13.1105,9.44471 1.27104,-0.2573 1.73744,-2.30475 3.15108,-2.57896 1.41364,-0.2742 0.13422,0.95644 1.50229,0.61415 2.30564,0.41895 1.19469,-2.38336 2.58932,-3.15133 1.39463,-0.76797 2.53508,-2.17556 3.57653,-2.52888 4.61661,-0.45781 12.81946,-5.01806 14.62559,-5.72629 2.30538,-0.90399 -1.56124,1.31456 1.59074,1.47124 1.33362,0.0663 5.5908,3.09012 7.42418,3.36633 1.83338,0.27622 -0.65137,-0.22187 0.67922,-0.0639 4.47534,0.24219 3.87357,5.16914 5.64991,5.45385 1.55125,1.00818 7.05637,-4.37962 8.76053,-4.52169 1.70416,-0.14207 -2.2352,3.24182 -1.08675,3.4674 3.69414,2.09657 16.6611,2.23797 18.65652,2.65992 3.99419,1.10804 -4.11464,-0.0377 -2.15871,0.39214 1.3657,1.46748 -0.0338,9.10087 3.20213,9.74761 0.49677,1.52043 0.44956,-1.17285 2.74289,-2.70185 2.29334,-1.529 10.41848,0.44015 12.19455,0.61865 1.31509,-1.59578 4.89886,-3.57614 6.63653,-2.75976 1.73767,0.81638 2.13774,3.03579 3.57691,3.3106 3.93959,2.54077 1.1311,1.8783 3.02021,2.10616 4.21314,1.03503 10.04811,-0.44241 11.96699,-0.42784 1.18763,0.009 1.55275,0.22356 3.2526,0.32579 1.69986,0.10222 0.1964,-3.68878 1.79134,-3.51363 2.64433,0.29039 10.82402,1.30435 13.42346,1.44011 1.22827,-1.54745 -4.01304,0.20003 -0.74635,0.21627 0.21903,0.43425 12.62475,-1.56955 16.33462,-1.8012 0.0471,-0.89336 -4.40661,0.0154 -2.51719,0.84401 1.88943,0.82866 6.00283,-2.27082 7.86381,-2.405 3.89294,2.88429 0.49301,8.51069 2.44164,8.13266 1.37097,0.73097 1.1503,-3.98543 3.06632,-5.75223 1.91601,-1.7668 12.92618,-5.09837 14.24371,-5.68225 2.69887,-3.70985 -2.83844,3.62145 -1.01203,3.16768 1.29951,-0.32286 0.57083,0.0783 2.66235,-0.27234 2.09153,-0.35056 3.35598,-4.95198 4.61468,-5.45944 1.21914,-0.49151 5.02891,-3.76406 6.45906,-4.78776 1.43014,-1.02371 1.21559,-0.3665 2.16102,-1.17567 1.89088,-1.61834 1.69415,-4.83676 3.56672,-6.70106 1.76617,-1.75837 1.76357,2.48931 3.39373,0.74196 -0.056,-0.57231 0.13655,-1.80946 2.48235,-2.80473 2.34581,-0.99527 3.88759,-3.53777 4.94099,-4.71832 4.02355,0.14479 9.26066,-7.86065 10.54678,-9.83937 3.20358,-0.66556 1.44688,7.41321 2.3753,4.88353 1.47191,0.0879 -1.03738,-9.12437 -0.26111,-12.25688 0.30937,-1.24843 8.85101,0.26141 10.04313,-1.63237 1.19211,-1.89378 1.46891,-3.69191 1.9793,-4.5271 0.66888,-1.09454 2.30252,-5.65766 3.15024,-6.94979 0.84773,-1.29214 -2.76151,0.0176 -2.14276,-1.07038 3.59462,-1.79439 4.30211,1.49482 5.24636,-0.37276 0.3535,-0.42069 -0.27288,-0.92826 -0.39095,-3.27215 -0.11802,-2.34389 -4.95577,-7.72429 -4.32826,-9.20216 -1.0381,-1.60823 4.84614,-8.1802 6.54326,-9.7815 1.69711,-1.6013 2.57283,-1.44158 3.10493,-2.61546 2.25247,-3.48118 1.26091,2.96742 1.89568,1.54696 1.89276,-1.13091 0.32276,-1.93064 1.27922,-4.52146 1.33641,-0.24877 2.661,-8.49653 4.06778,-10.98386 1.40677,-2.48733 1.83528,1.17362 2.13138,-0.40889 3.11011,-3.65946 -0.97592,-10.0912 -1.14763,-12.00197 -0.20897,-2.32532 2.59739,-5.93983 3.42959,-8.39208 0.65439,-1.92828 0.83779,2.84898 1.54927,1.00864 1.18732,-0.41304 5.48128,-0.41632 6.06252,-2.38163 0.58125,-1.96532 -2.38202,-2.64561 -2.21539,-3.78241 0.98785,-3.5677 5.75065,-9.29586 5.65306,-10.41072 -0.15847,-1.81019 -4.11193,-4.31002 -4.44774,-6.71101 -0.32242,-2.30525 -2.93391,-1.84 -3.63144,-4.02142 0.63161,-1.6748 -1.07569,-3.28599 -1.58022,-4.60261 -0.50454,-1.31662 0.0229,-0.91064 -0.47607,-1.90098 -2.24044,-3.11914 -4.33289,-3.16927 -5.13813,-4.55109 -1.17258,-0.47782 -2.4467,-1.30804 -2.81786,-3.11388 -0.37116,-1.80584 5.61366,-4.33775 5.03373,-5.43288 -1.88033,-3.65101 -7.38238,-1.38196 -7.96133,-2.64573 -0.0347,-1.27113 -5.72448,-1.91396 -6.65999,-4.68874 -0.70305,-2.08531 1.82737,-3.09968 1.47366,-5.47467 -0.3472,-2.33123 8.32352,-4.21014 8.27037,-6.80072 -0.37989,-0.35954 -1.29133,-0.20397 -0.76615,-2.43242 0.52518,-2.22844 3.67519,-9.31333 3.87235,-11.13742 3.68974,-3.26177 -6.07899,-2.08846 -6.50084,-4.4638 -0.22554,-1.26996 -1.26387,-1.5064 -1.88214,-3.26879 -0.61827,-1.76239 2.91169,-9.5502 3.12537,-10.61613 0.47573,-2.37313 -1.81712,-1.74016 -1.20842,-4.05654 -1.31246,-1.62432 -0.46627,-3.50846 0.48967,-6.37889 3.05481,-0.56279 -0.64912,-0.82584 0.12755,-3.57238 -1.82685,-1.65586 6.37073,-0.37512 7.22111,-3.27296 -0.77101,-0.45771 -5.60116,-5.15721 -4.64341,-8.46266 1.14712,0.0758 11.21998,-0.9981 12.75799,-3.43453 1.53801,-2.43644 2.33178,-9.73469 2.50417,-11.38995 1.6135,-1.71493 0.42743,-1.66533 -0.88219,-2.82819 -1.30961,-1.16285 -9.72617,-2.23714 -10.02646,-3.24131 -0.74074,-2.47704 -0.72883,-2.74216 -0.87414,-4.76037 -0.18534,-2.57418 12.49284,-4.84942 12.12368,-7.32421 2.11391,-2.49822 -1.02799,-4.9435 -1.73569,-7.61661 0.19754,-0.35485 -0.48149,-1.94054 -0.95904,-3.65537 -0.47756,-1.71484 -7.43949,-4.3129 -8.05775,-5.96698 1.10823,-0.98314 1.09168,-0.22457 -0.22052,-2.40144 -1.3122,-2.17686 -6.1407,-6.36029 -6.91853,-7.86901 -2.66402,-3.77863 2.14221,-1.65291 1.53379,-2.81324 -0.19313,-3.14616 2.17571,-2.70348 1.00972,-4.61277 -1.37987,-0.18867 -8.05909,-1.41671 -8.69912,-3.86912 -0.64002,-2.4524 -1.14138,-5.59961 -1.57181,-6.98284 -0.76198,-2.4487 4.81748,-11.73483 4.02854,-14.03387 -0.73432,-2.13991 -8.88217,3.05443 -9.72319,1.1929 -2.89335,-1.2369 8.15492,-1.35169 8.02039,-3.5361 -0.12252,-1.9888 -8.09253,-2.62288 -8.23803,-4.77101 -0.0786,-1.15973 -0.60578,-7.21398 0.18993,-9.21102 0.79572,-1.99704 5.00705,1.9129 4.82094,0.64515 1.38973,-4.03241 0.99663,-2.725 0.19473,-4.78588 -2.40968,-0.84452 2.59297,-4.71401 1.41594,-7.48313 -1.00623,-2.3673 -11.78171,-2.15019 -13.35076,-3.93297 -1.67541,-1.90364 -0.97513,-12.13138 -2.75301,-14.01328 -0.88756,-0.30178 1.32196,4.87816 -1.16443,2.37022 -1.23277,0.53793 -6.15546,-0.29835 -7.04317,-2.83015 -0.88771,-2.5318 5.97044,-6.19837 4.7522,-7.49926 0.45565,-2.02511 -4.23144,0.39377 -6.32981,0.1498 -2.09837,-0.24396 -3.97399,-8.01791 -4.99869,-9.02026 -3.45713,0.4362 -7.10109,7.16877 -9.13445,4.99812 -2.30518,0.52552 -2.97399,-2.60473 -5.13857,-5.44226 0.15734,-0.0775 -1.8743,-9.56746 -2.70847,-12.85308 -0.83417,-3.28561 4.17604,-0.87543 2.9857,-2.45888 -0.57917,-5.48445 -4.31522,1.55146 -5.73789,0.53916 -2.29755,-1.63484 0.17697,-8.68381 -1.33188,-10.46791 -1.69091,-1.99937 -16.77523,6.22745 -18.41455,3.95699 -1.58035,-0.0492 -3.38793,-8.9587 -4.24379,-11.25908 -0.85587,-2.30039 5.86337,-1.58028 5.05861,-2.98821 -1.38937,-2.43071 -1.49952,-5.70112 -3.58204,-7.0091 -1.04033,-0.6534 -1.23503,2.05324 -2.21166,0.76157 -0.97664,-1.29168 -1.00677,-7.57785 -2.16789,-7.55998 z"
       id="path861" />
    <path
       style="fill:#5fd3cd;fill-opacity:1;stroke:#000000;stroke-width:1.8;stroke-linecap:butt;stroke-linejoin:miter;stroke-miterlimit:4;stroke-dasharray:none;stroke-opacity:1"
       d="m -316.95066,-297.0937 c -2.05603,-0.0137 3.68715,1.38815 1.62888,1.5305 -1.34699,0.0931 -8.21223,-1.68186 -10.33062,-1.74942 -2.11839,-0.0676 -3.12828,2.68633 -4.39513,3.05149 -2.17559,-0.40994 -0.16526,0.2706 -0.94504,0.94119 -0.77978,0.67058 -0.99702,2.48732 -1.97359,2.96146 -3.83516,1.87559 -7.92243,-0.41918 -9.61232,0.68004 -0.37249,1.31793 -1.78098,4.89747 -2.33488,6.40315 -0.55389,1.50568 2.54792,4.93044 1.29497,5.81073 -0.20154,1.9948 -5.98868,1.06516 -8.23699,0.69655 -2.24831,-0.36861 -3.54617,-3.51853 -4.93558,-2.89582 -2.32837,-0.34033 -5.67677,2.70183 -6.4781,3.95439 -0.80134,1.25255 3.63008,-0.20472 2.79291,0.42091 -2.01468,1.5056 -1.38398,12.47361 -3.91022,13.63445 -1.09441,0.50289 -8.34125,-4.22799 -10.23884,-4.35797 -1.89758,-0.12999 2.55648,0.5586 1.42084,0.88508 -3.86057,0.99546 -10.82282,-3.30785 -12.32297,-3.0285 -3.1192,-0.81115 -5.55067,7.30678 -7.54664,7.51019 -3.71547,1.14958 -0.96658,-3.58267 -2.60819,-3.66387 -1.62968,-1.63653 -0.52196,6.17669 -3.34517,6.06153 -1.10622,-0.0451 -3.94385,-8.44601 -6.07484,-9.97138 -2.13099,-1.52536 -7.05651,-1.3325 -8.30782,-1.59582 -2.32979,-0.49027 -1.13705,0.79647 -3.38707,0.38033 -0.2922,-0.43564 0.0798,1.39056 -2.01752,0.86024 -2.09734,-0.53031 -7.18919,-7.14951 -8.71308,-7.28662 -3.69926,-2.26721 -0.40065,8.81181 -1.8861,8.87055 -3.06742,1.10477 -12.79853,-8.37358 -14.52757,-8.14397 -3.69613,0.53076 5.46433,10.38511 3.97605,10.77973 -1.94003,0.5144 -3.93907,-10.31562 -6.81875,-9.33904 -2.49538,0.84626 -15.60073,-2.21014 -18.06189,-1.28101 -1.81983,-0.70641 0.60078,1.49718 -0.28059,2.48795 -0.88137,0.99078 -4.33376,2.50635 -5.50425,2.99859 -3.89117,-0.99562 -3.4298,12.01787 -5.64057,13.05195 -1.32096,3.31354 -3.71417,-1.62204 -6.1075,-0.42409 -1.56173,-0.65987 -3.72196,-3.85024 -4.54542,-2.74119 -0.82345,1.10904 -1.29519,7.49899 -2.5828,8.20365 -0.51087,1.94563 -2.13947,-2.26718 -3.62828,-2.79563 -1.48882,-0.52844 -3.0439,3.03603 -4.16795,3.66318 -3.61662,-0.92596 -0.0289,6.32697 -2.30528,7.66432 -0.71659,3.44653 -6.43248,-9.01468 -8.83199,-7.62928 -0.82254,-0.39143 -4.80175,6.03047 -6.70319,6.9956 -1.90143,0.96513 -1.47576,-2.98634 -2.97052,-2.11014 -3.91156,-1.65742 -0.63226,6.18171 -2.98156,7.70336 -1.22299,-0.49983 -9.0669,0.59368 -11.34952,0.77333 -2.28263,0.17964 1.55164,-2.11872 0.18884,-1.10646 -2.07752,-0.52572 -8.34176,-1.28938 -9.88876,0.62262 -1.547,1.91201 -0.39276,2.8892 -1.47155,3.86616 -2.08048,3.94574 -5.98959,5.0746 -7.22535,6.14708 -1.88863,3.14334 -2.08672,1.72128 -3.71328,2.82227 -1.64522,-0.14025 0.80271,0.63695 0.0466,2.54286 -0.75615,1.9059 -7.40285,3.79335 -8.4525,4.59541 -1.9678,1.50362 -3.55528,-0.9176 -6.07919,0.1089 -1.1719,0.47663 2.82894,3.08867 0.39936,4.20414 -2.68095,3.0129 -13.4463,1.81119 -14.76509,2.4465 -1.79631,0.86536 1.49512,2.28655 3.68997,3.27154 2.28067,1.02349 10.20707,4.25706 12.54144,5.14312 1.13627,3.01948 -2.96779,-4.29343 -0.31788,-3.49173 1.21497,-0.96157 8.03041,-1.77318 10.19923,-0.20829 2.16883,1.5649 -0.59999,10.63616 0.79248,10.99783 3.3102,2.873 6.05995,0.45418 7.84731,0.85924 0.80594,1.02429 -0.0864,1.60529 1.89544,1.52848 1.98186,-0.0768 9.37498,-0.6026 10.78508,-0.36149 4.40937,0.73607 -2.04016,-1.07482 -0.4676,-0.84295 1.75073,-0.59032 11.52039,-2.28792 14.4906,-1.90086 2.05078,-2.49502 -2.50322,-0.58283 0.45559,-0.0377 0.89192,-1.21298 6.43725,-7.17016 9.94719,-6.23785 0.34659,-0.78015 4.14849,3.28785 6.48614,4.00624 2.33764,0.71843 -0.62825,0.63175 1.18213,1.29636 4.64295,-1.94314 2.09195,3.99882 4.08768,5.24812 0.49303,0.0802 5.35118,-5.61617 8.0619,-3.86175 1.14804,0.74302 2.86787,0.10187 5.38597,1.16546 2.5181,1.06359 10.09066,10.77086 11.02378,11.03253 2.34889,0.65868 0.46266,-3.98365 2.68258,-3.17657 0.46344,-0.1462 -0.97006,-0.34475 0.0465,1.06717 1.0166,1.41193 3.66468,1.13705 5.09412,1.80503 0.2871,1.84956 5.18598,3.03029 6.99059,3.7572 1.80462,0.7269 -1.87152,1.59343 -0.75474,2.08971 3.52808,1.75428 2.24048,-0.98563 3.57883,-0.40702 0.7097,0.029 6.79108,-0.30776 8.86432,0.22671 2.07323,0.53446 3.91427,2.07675 5.17141,2.64454 3.86618,-1.07678 4.41757,8.21582 6.11176,9.37986 1.48004,3.29975 2.81422,-1.54721 4.67907,-0.72153 2.07737,0.91977 -3.23014,3.3288 -0.93292,4.50086 1.11518,0.56898 9.10474,-0.34095 11.1898,0.70248 2.08506,1.04344 -2.72071,7.76386 -1.60248,8.32579 3.57537,2.16187 10.7114,-0.2491 12.20505,0.49386 1.01944,1.34491 -2.15979,4.34944 -1.10994,4.77795 1.04984,0.4285 1.98834,0.54241 2.99884,1.03013 3.81379,1.27836 1.12394,1.33053 2.70336,2.08403 2.33819,2.67209 10.94939,-6.70197 12.87667,-5.81502 1.54846,-0.4688 5.58507,6.71968 6.94991,8.46475 1.36485,1.74507 -3.83095,3.24916 -2.69283,3.79211 3.82319,1.81716 5.27436,2.86339 6.72597,3.57485 0.5397,0.5999 -0.82012,-0.62674 0.21349,0.38358 1.0336,1.01031 6.29062,0.50188 7.62899,1.17281 0.86727,3.79566 3.22413,-2.20257 5.65107,-1.19588 2.61899,-1.57511 8.72859,1.12687 11.26922,2.44627 1.13407,-0.72498 2.44431,1.51851 3.64935,3.61998 1.20504,2.10147 -3.74436,3.96513 -2.43442,4.98443 3.14576,3.64301 3.24412,0.82229 4.35421,1.52408 2.06261,1.30396 0.82033,2.87628 3.36783,4.48312 1.82352,1.15018 6.04179,-4.6735 7.90457,-3.11376 1.19917,-0.22468 5.85516,-0.66647 7.78761,0.89238 1.93245,1.55885 7.60102,6.18356 8.51109,7.48076 4.01301,0.42544 -0.17726,2.79528 0.37405,5.83322 -1.5846,0.52807 -10.14731,6.188261 -9.80652,9.419061 0.28037,2.658123 3.81438,4.056143 3.24028,5.931536 -0.76754,2.507218 1.93357,3.672819 0.53363,5.948979 0.26733,0.778739 2.15692,7.732526 1.87997,10.060194 -0.27695,2.327667 1.03601,2.986983 -0.26598,4.345998 0.3461,4.765208 -5.78169,3.390343 -8.22311,5.152639 -0.6317,-0.255991 0.87226,-3.421688 -1.54086,-2.864105 -2.41313,0.557581 -10.48377,-2.212111 -12.03334,-1.039577 -5.59613,0.161479 -3.34196,4.659797 -4.48504,6.646143 -0.70014,1.21664 -0.61429,9.6351 -1.51696,11.930036 -0.90267,2.294935 -0.36152,2.669413 -1.07721,3.619969 -1.53933,2.044484 -0.23032,3.908403 -1.45727,6.005897 0.54071,1.143728 1.8785,2.051395 0.66039,3.588927 -1.21812,1.537533 -1.84093,1.8595 -2.43828,3.10678 -1.51312,3.90765 -5.53408,9.204334 -6.03189,10.406925 -1.24574,3.077578 -1.96031,-3.96096 -2.38451,-2.351183 -2.39162,2.473607 3.38553,2.716814 3.85634,5.146632 0.20471,1.056486 1.81476,7.314595 1.91338,9.6569 0.0986,2.3423037 -0.57686,3.9922489 -0.37778,5.372906 0.1783,1.2368398 0.19712,0.4179475 -0.46815,1.749568 -0.66523,1.3316205 -6.71878,4.92426436 -6.64273,6.1052712 -1.59618,3.5832985 1.01731,1.8179817 1.12419,3.5327584 0.64309,3.5336157 6.1615,7.3284684 6.15161,8.8961394 -1.55957,1.769017 -2.60329,-1.694492 -2.55124,0.950573 0.0425,2.159541 1.15164,12.661881 0.57352,15.180007 -0.4575,1.992783 -2.88805,-2.165178 -3.63757,0.06655 0.98392,1.535518 -2.21736,5.21363 -3.83461,7.983091 0.69694,0.896877 0.81816,-0.108259 -0.82943,0.686643 -1.6476,0.794902 -0.23032,3.930616 -1.55149,5.109049 -4.58416,-0.198307 -2.84161,-1.103994 -4.00451,0.406839 -1.42775,1.854917 -1.5977,4.449902 -3.5822,4.958005 -2.34972,0.601619 -10.7499,8.693272 -13.04319,8.799482 -2.79929,-2.118285 2.05884,-9.741928 0.10623,-9.835187 -1.99856,-2.065102 -15.10666,1.567451 -17.44012,1.426226 -0.63548,-1.234935 0.16768,-8.114043 -2.98184,-8.226814 -0.11838,-0.927364 1.07406,-0.188723 -1.28678,0.66108 -2.36084,0.849803 -2.77185,4.754837 -4.41597,4.839821 -2.54528,0.131563 -3.98185,-6.284729 -5.85125,-6.790893 -1.17744,-0.318805 -8.1231,6.306077 -10.42883,6.208171 -2.30573,-0.09791 1.07362,-6.856383 -0.0464,-7.236057 -3.78645,-1.174519 -2.5438,2.359526 -3.96029,1.81638 -2.48244,0.629596 -13.64307,4.190084 -15.85446,3.137953 -0.887,0.524608 3.65709,-2.097224 2.63673,-2.745652 -1.02036,-0.648427 -5.43625,-4.511632 -6.72179,-5.29189 -2.96626,1.501132 1.2099,0.74388 -1.02643,-0.999991 0.24905,-1.374721 1.71979,-5.812946 -0.25138,-7.463333 -1.97116,-1.650388 -13.45695,-0.208748 -14.55435,-1.011419 -2.20113,-3.408498 3.68677,-1.462647 2.40933,-2.270289 -2.90314,-1.916154 -1.39029,-2.377124 -2.89954,-3.177818 -2.55629,0.599607 -5.03932,-5.119869 -7.17109,-6.64449 -1.86109,-1.331044 -13.33769,1.827124 -15.52421,0.676654 -2.24289,-1.180114 5.70081,-1.591846 3.3923,-2.781855 -0.77677,-0.188473 0.43816,-3.6549028 -2.78317,-5.1930842 0.17,-0.9633163 -8.88793,-0.775623 -11.72671,-0.327589 -2.83879,0.448034 0.70629,2.7813421 -1.08954,2.1375392 -1.50574,1.330516 -7.92877,0.956583 -9.55963,-0.9694482 -1.63086,-1.926031 -3.23921,-5.6003858 -4.64402,-6.196999 -1.81878,-3.9186035 4.23622,-3.2556529 1.94782,-3.7895802 -1.0619,-2.1877351 -6.29825,8.7803251 -9.57494,8.9427709 -2.80858,0.1392385 -9.96443,-1.0576898 -12.08067,-1.1298171 -2.64516,-0.090154 -2.8772,-4.0863532 -5.54566,-4.1739412 -0.67725,-0.97382992 0.34284,-0.7330015 -1.95186,-0.5978599 -2.2947,0.1351416 -10.80561,0.386263 -12.47439,0.3556735 -4.69902,1.3907682 -0.90066,-6.8763723 -2.60771,-6.9045619 -3.47895,-1.3148258 -0.49076,1.731912 -2.8068,1.7189534 -0.73368,0.6862139 -0.82763,3.60896781 -3.00749,3.0131958 -2.17985,-0.595772 -3.20173,-5.3381969 -4.87665,-5.3424095 -1.47206,-1.6690681 -2.60706,2.6747716 -4.11958,3.9512929 -1.51252,1.276521 -5.96256,-3.1755537 -7.29627,-3.1274883 -1.14189,1.3529984 -6.5762,1.8453568 -8.6027,2.4548274 -2.0265,0.6094706 1.57596,1.95381718 0.12862,2.00386893 -4.11462,2.09172397 -3.78875,-1.07754143 -5.78757,-1.05904333 -4.00998,0.93442568 -3.94672,0.028134 -6.02538,-0.027304 -3.62961,-1.7832441 -9.42627,10.5826044 -11.59831,10.606989 -1.38527,1.4415118 -5.61647,-3.4109316 -9.01475,-3.475721 -0.12417,-1.6969308 0.2978,-11.6689147 -3.60041,-11.0958161 -1.41311,0.2077503 -0.1892,2.6687612 -2.45036,4.71390572 -2.26116,2.04514448 -3.01563,8.56540498 -4.15891,8.70013318 -2.08317,0.2455002 -2.93116,-2.5239275 -5.31341,-2.5681096 -0.31608,0.074372 -10.82617,3.7558695 -13.8458,4.3473195 -3.01962,0.5914501 -4.95347,-1.356612 -6.45506,-1.1255392 -3.74178,2.0839613 0.27277,-0.058907 -0.55818,0.1628571 -1.95935,0.5229144 0.56572,-1.089141 0.0243,2.2829912 -0.21267,1.324643 -4.16313,6.377617 -3.95257,8.316063 0.21056,1.938445 1.55885,4.0059 1.48883,5.32334 2.25779,3.436819 1.04178,1.337856 1.05148,3.536984 0.7573,0.714794 -1.08632,4.175369 -1.06992,6.54058 0.0164,2.365211 4.05195,7.363262 4.14161,8.902545 -0.71513,4.584599 -0.34195,-2.536144 -0.16972,-1.012498 0.7861,0.937646 -1.00008,3.922114 -0.10888,5.534976 0.8912,1.612862 2.23785,0.167048 2.46808,1.518967 1.60603,1.245812 6.95372,3.863983 6.62005,5.771213 -0.33368,1.90723 -1.38292,4.044604 -1.27939,5.254685 -1.56076,3.905319 2.24578,2.43809 3.02661,4.173202 0.94654,2.103302 0.36497,4.663734 1.71883,7.226746 0.60509,1.1455 0.90557,0.611469 1.44657,2.215538 0.541,1.604069 1.86504,7.67465 2.53108,8.846115 2.35083,3.846688 2.01886,0.802598 2.92669,2.395784 1.4218,0.670326 2.54087,2.113652 2.11509,3.48789 -0.42578,1.374238 -2.3431,-0.03294 -1.71297,1.286542 -0.79602,1.659107 -1.31229,1.267616 0.0234,3.424288 1.33571,2.156672 8.23493,4.180675 8.89992,5.527745 2.41848,4.207299 -4.51806,4.140879 -3.88761,5.633569 2.83358,2.49128 1.26485,3.38943 1.36957,6.07865 0.0473,1.21296 6.1541,3.10113 5.86076,5.16423 -0.29333,2.0631 -0.30266,6.36533 -0.24787,7.86999 0.0963,2.64436 -5.81291,0.9566 -5.75553,3.60265 0.9118,0.6535 5.77631,-0.59299 6.76431,1.13458 0.98799,1.72758 -2.89366,3.95979 -2.90296,5.62478 1.51359,0.90971 -0.42505,6.7373 -1.33262,8.57983 -0.90757,1.84253 3.48588,0.85539 3.41096,2.44257 -1.58998,1.01828 -5.80434,5.70368 -5.25318,7.73081 0.55115,2.02713 8.73317,2.426 8.65491,3.86981 2.27531,3.76565 -2.17819,1.73235 -2.34525,3.91425 -2.09878,3.2989 -0.38147,11.54705 -0.55893,13.77974 -2.4528,2.69625 -7.89923,-0.52864 -8.03724,2.005 1.20395,1.38783 5.78632,0.77826 5.89982,2.97711 0.11351,2.19886 2.35129,11.33429 2.24435,12.65953 0.12821,4.484 -1.65214,3.10039 -1.83184,4.82617 -0.90304,3.82351 -2.93373,0.80027 -3.15127,2.76855 -1.25354,3.99496 -9.35955,13.92186 -9.47995,15.79487 0.68681,4.1856 1.91495,0.88863 1.59317,2.86771 -0.34436,2.11801 7.70408,4.49366 7.4019,7.88511 -0.18974,2.12938 -5.6124,1.57184 -5.6855,3.97949 0.30893,0.39732 4.45873,4.36417 5.03595,6.65648 0.57722,2.2923 1.52971,3.49817 1.31959,5.15733 1.83476,4.48669 0.44825,1.83382 -0.28834,3.55171 0.21844,0.68264 0.85557,0.79948 -0.0823,2.68838 -0.93785,1.88891 -2.61696,1.82831 -3.79058,2.96799 -1.75855,1.7077 -3.45228,-1.82335 -5.20217,-0.637 -2.00945,1.36231 -18.7254,4.16885 -20.88623,5.18965 -3.4596,-0.94468 8.26781,-0.88019 6.27127,-0.11383 -1.39583,-0.63125 -10.97849,3.02575 -13.85136,4.00678 -1.20708,-1.41297 -0.12616,-1.55465 -3.3129,-0.29653 -0.0534,-0.20443 0.43735,-0.95366 -1.28182,0.69816 -1.71917,1.65183 -8.88993,8.0864 -10.60642,8.86338 -2.02316,4.35435 2.14344,1.37533 0.3638,1.88032 -2.93305,2.47725 -2.62252,0.71152 -4.64367,0.82565 -2.39282,0.13512 -3.19366,0.94667 -5.24863,2.07355 -2.37012,1.2997 -12.26954,0.97637 -14.20813,2.79404 0.33377,3.12089 2.82095,0.70383 1.08765,2.96509 0.38923,0.83694 -2.58064,1.26612 -4.23645,3.6064 -1.65581,2.34029 3.9367,7.29861 3.05552,8.7488 -3.49957,3.45519 -4.36345,0.19025 -4.94418,1.54689 -1.34292,1.3007 -1.59683,1.67676 -2.39188,3.86276 -0.79505,2.186 -6.01791,13.70617 -5.95882,14.97282 0.11455,2.45552 7.9895,-3.29955 8.19135,-0.60998 0.0928,1.23705 -4.18888,-0.68511 -4.72901,0.75738 -0.54014,1.44249 -2.02104,3.44467 -1.76589,4.63559 -1.30807,3.764 8.68034,5.21065 9.34514,7.16697 -0.43563,3.79462 -7.49801,1.58693 -6.56968,3.53252 -0.38091,1.71029 -4.5595,8.39083 -4.03172,10.52715 0.52779,2.13631 2.21249,3.40571 2.96043,4.5357 -0.30915,1.96478 7.19594,5.91676 8.89342,7.34259 1.69747,1.42584 1.15424,-2.19566 2.05256,-1.16944 1.65949,4.1132 -1.91434,6.58293 -0.59852,7.86042 0.43209,0.35857 0.59604,-1.27208 1.4303,0.0218 0.83426,1.29392 6.72139,5.18856 7.85008,6.24204 -0.6003,3.4902 -3.01865,0.2124 -0.80024,1.89436 0.10578,-0.26771 0.15766,2.26149 2.64988,3.46631 2.49222,1.20482 6.93539,5.77959 7.9847,6.96192 1.69767,1.9129 8.01527,-2.45948 8.67416,-0.61569 0.90692,2.53792 -3.86256,10.21085 -3.90868,12.68945 1.04386,0.81821 1.55872,0.40289 2.02853,1.89526 0.4698,1.49237 5.40807,0.54428 4.82496,2.09953 1.98324,3.6508 -2.1112,0.14922 -3.7897,2.54224 0.0495,0.0894 -5.76849,7.1076 -6.7146,10.0984 -0.94612,2.9908 6.61256,4.63795 5.67896,6.11748 -1.4805,2.34621 -13.15709,2.64277 -13.48494,4.54998 -0.45417,2.64215 0.96969,6.43972 1.0882,8.61866 2.04545,3.06776 7.70519,-1.45394 7.90285,-0.0791 0.65394,0.73262 0.10747,12.69375 0.93203,15.16432 0.66141,1.98174 6.57831,-3.96001 7.93008,-1.94318 1.45113,2.16504 -2.51346,9.73469 -0.99318,11.84306 0.21931,0.92144 5.04607,-1.32053 7.19905,1.39698 -0.36844,0.57833 1.73067,0.73201 3.66604,2.04882 1.93537,1.31681 4.00755,1.32446 5.22989,2.7194 2.4202,0.12333 5.89205,3.09932 6.45993,4.56203 0.56787,1.46271 -3.44442,6.47256 -2.71255,7.27517 3.29835,2.23354 -0.0497,-2.50832 1.26188,-1.11409 0.46151,1.40964 10.51544,-3.28081 12.75045,-1.03696 3.17991,-0.8548 -4.15062,12.79804 -1.99053,14.90146 0.47151,-0.0761 2.50119,-4.70905 3.67391,-3.03508 1.17271,1.674 5.25053,2.67485 6.54213,3.89252 -0.26447,2.16465 -3.54827,7.17737 -1.88302,7.75257 1.66525,0.57519 9.65942,2.87129 10.61134,3.71469 3.96954,0.46605 1.98964,2.37953 3.65255,3.81072 0.24842,1.66019 -0.87326,4.14558 0.51563,4.70646 1.38889,0.56088 4.57359,1.67963 5.57166,2.48245 3.87215,1.78666 7.21942,-0.89441 8.61487,0.19002 1.59949,0.11841 2.63082,-0.78135 3.52662,0.44299 0.8958,1.22433 2.26006,2.66775 3.25158,3.42498 3.21471,2.80869 -3.18666,1.52001 -1.83004,2.52971 0.55961,0.44433 3.0186,4.54493 4.96396,4.94409 1.94535,0.39916 2.22933,-0.36471 3.4962,0.51788 1.7197,-0.64083 1.31282,-1.32548 3.08847,0.15653 1.77565,1.48196 2.28769,4.92142 3.43828,5.80086 3.29035,3.09335 14.14938,-1.80519 15.36971,-0.89414 3.21749,1.90337 -4.8231,5.27718 -3.29519,6.36586 2.90347,-0.32086 10.56204,0.59108 12.74577,2.4178 1.7804,1.48932 -5.20896,3.50942 -2.67103,4.57064 1.21505,0.50808 9.67144,0.33674 11.72131,1.34676 2.04987,1.01001 2.73401,4.59157 3.95686,5.08107 3.52139,2.59729 -3.12347,1.63802 -1.4074,2.30352 0.74478,1.22884 -0.10167,3.35211 1.95458,4.30853 2.05626,0.95641 3.69429,-0.7984 5.02673,-0.30799 3.03702,3.28172 16.22511,8.98329 18.10589,9.64842 3.37073,2.08582 -1.22117,-0.45517 0.72894,0.20567 3.715,1.58765 2.6754,1.4997 4.56241,2.11306 3.72513,-0.56073 7.84372,2.18594 10.04574,2.8708 1.65745,-0.69213 -0.51081,-6.24084 1.07774,-6.82662 1.58854,-0.58578 8.66251,4.9668 9.90863,5.33847 3.94941,-1.25775 2.14301,-5.17408 4.30956,-4.54605 0.48769,0.56918 5.34734,0.91484 7.84468,1.31861 2.49733,0.40376 5.29087,1.96099 6.90467,2.4081 4.84758,-0.58391 -2.86901,4.01048 -1.21309,4.46158 1.57578,1.90807 10.14534,1.60115 13.01622,2.35549 0.34898,1.1908 -2.66902,-0.51467 -1.04532,-1.12132 1.62371,-0.60664 8.08134,0.11019 9.71087,0.51597 3.60021,-2.54877 -3.01723,1.76843 -0.54435,2.37401 0.60801,1.27345 0.0355,1.99641 2.90279,2.64419 2.86729,0.64778 14.60186,-3.27572 16.11141,-2.9195 4.3449,1.87036 -4.45972,8.76695 -2.83619,9.14149 3.25825,1.76525 17.13116,-3.76503 19.29395,-3.28393 3.51344,2.10599 -4.54009,8.67669 -2.52027,9.10704 1.22745,0.6008 11.06337,-4.51298 14.35653,-3.85838 1.75466,-2.34083 -3.88471,-1.7916 -0.58126,-1.1411 0.82347,-1.13224 0.30462,0.0116 3.47529,0.50122 3.17066,0.48967 7.11556,5.29407 8.79107,5.64074 4.93515,-0.20615 10.14118,-11.70585 11.71251,-11.36917 3.39542,-0.74821 6.19834,0.736 8.57581,1.28432 3.60649,-1.58658 -1.66119,13.49034 0.74624,14.10952 1.01424,1.54737 9.42676,-0.35186 11.54048,-0.44141 2.11372,-0.0896 -2.55676,-2.86425 -1.28693,-2.52644 3.64826,2.4302 1.57937,2.41717 3.41373,2.90058 2.03794,-0.8421 13.7686,-0.2937 16.76727,0.52705 0.49605,-0.50178 0.17319,-0.69825 2.34684,-0.56505 2.17366,0.13321 0.2607,-0.1676 2.02999,0.36147 4.97795,-1.16592 2.044,0.34939 3.77594,0.9323 2.61629,-0.85436 1.4584,1.19463 4.27318,2.3659 0.15206,2.49211 13.84168,-1.47946 16.983,-0.2922 -0.0506,1.04184 2.63771,5.5008 4.6991,7.11216 2.06139,1.61136 3.88497,3.49465 5.6629,3.97039 4.1713,2.97963 1.87875,-2.44878 3.48256,-2.20916 3.3527,-1.1616 2.21189,0.70457 4.48123,1.28706 2.48332,0.63742 8.84355,4.91343 11.53894,5.61223 1.20769,0.3131 -1.37714,-0.65737 -0.0934,-0.33829 1.28377,0.31908 4.00672,-3.03717 5.2358,-2.70881 3.82828,1.82894 4.83505,6.26561 6.53599,6.71084 1.27981,1.12438 0.61384,5.91482 3.68326,6.63491 0.42069,1.44554 -0.30689,0.70284 1.44762,0.99046 1.7545,0.28762 2.67241,-1.7306 4.32508,-1.47942 1.14322,1.83001 9.87901,-0.0183 12.25971,-0.60166 2.38071,-0.58332 3.56887,0.53385 5.01115,0.56468 4.13826,-1.67017 1.01711,0.69078 2.77664,0.73089 2.08866,1.68912 -0.80165,5.24027 2.05412,5.05926 0.2255,0.67413 1.11458,0.98715 4.09763,-0.3856 2.98305,-1.37276 3.84356,-7.22829 5.60452,-7.48832 2.65083,-0.39144 4.89533,4.02106 7.0072,4.17384 1.99545,0.14436 2.46317,-4.16458 4.4025,-3.69613 0.32848,0.87972 0.8264,3.07133 3.27349,3.53207 2.4471,0.46074 5.11939,3.01789 6.36553,3.24233 3.75941,0.81458 2.76897,-5.19936 3.79562,-5.07581 1.93904,0.23331 1.97265,5.70879 4.38139,5.93511 0.81538,-0.84821 0.34565,-3.05416 1.80102,-4.81381 1.45538,-1.75966 9.14395,-0.0431 10.12718,-0.82245 1.96647,-1.55867 3.59006,-6.35389 5.30663,-7.957 0.87653,-0.8186 -0.65925,-0.72154 0.44373,-1.62956 1.10297,-0.90801 7.08545,-1.25801 7.97163,-2.10711 2.88705,-2.92889 -0.28323,0.86616 0.90032,-0.28125 1.02028,-0.17787 5.7668,-4.0316 7.38451,-5.53897 1.61771,-1.50738 -1.04028,0.71649 -0.0333,-0.34286 4.20967,-1.69101 3.93774,-0.29004 5.05936,-1.67571 2.85163,-2.68761 -0.97736,-16.56202 0.0562,-18.09162 2.11108,-3.45634 15.12016,0.62334 16.09721,-0.69212 1.2057,-1.62331 -7.00069,-0.11616 -4.79254,-2.36544 1.26352,-1.28704 8.73775,-4.25396 10.69111,-6.47853 0.104,-1.99119 0.21454,-1.45101 1.33473,-2.91856 1.12019,-1.46754 4.02288,-4.50347 5.26335,-5.43567 2.37367,-1.78381 -2.8435,2.16282 -1.50904,0.79893 0.24257,-0.27831 -0.67499,-6.82427 -0.42477,-7.0956 0.23079,-0.25027 6.45362,1.2019 6.64824,1.0096 2.11355,-2.08825 -1.0043,-1.0561 -3.25226,1.24141 -0.59094,0.6781 -4.82081,3.98782 -5.42956,4.65161 -0.26768,0.29186 4.39985,-1.0352 4.62524,-1.20048 1.48657,-1.08771 0.30851,-1.79019 1.67675,-3.02008 1.71783,-1.54409 4.48681,-3.25454 6.33562,-5.24543 0.9244,-0.99545 4.78391,2.34186 6.17035,1.5801 1.38644,-0.76177 -1.38298,-1.40904 -0.54183,-2.20043 0.82187,-0.77325 6.96523,-4.29439 8.32032,-5.79968 1.3551,-1.50529 1.25633,-2.51107 1.87731,-3.41312 2.63093,-2.92389 3.01408,-1.85276 3.59473,-3.09461 0.86919,-1.85896 -0.70331,-8.47221 0.80785,-10.72953 1.36742,-2.04261 -0.45614,4.56127 0.59176,2.34035 0.8587,-1.81994 -1.05888,-7.1808 -0.23153,-9.39018 -0.12908,-0.31077 3.29301,-0.59373 3.57653,-2.15924 0.28353,-1.56551 1.27701,-3.14844 1.90211,-4.63812 0.97073,-2.31332 -1.99801,-4.5554 -1.27327,-6.15827 0.35769,-0.79111 1.05895,1.64011 2.87637,0.5222 1.81743,-1.11791 2.69725,-1.98758 3.19525,-2.70228 1.30465,-1.87236 -0.80721,-6.11517 0.28415,-7.6773 -0.27946,-0.38085 6.45303,-4.04211 8.42732,-5.44764 1.97429,-1.40553 3.70791,1.85168 4.59381,0.81586 1.350572,-1.57911 -0.60202,-5.305 0.552646,-6.90611 0.61036,-0.84635 -0.304525,-2.8972 0.744233,-3.74202 1.048759,-0.84482 0.407693,0.23427 1.361439,-0.54853 1.907493,-1.5656 1.897664,0.62487 3.378656,-0.85404 1.300057,-1.29825 8.181988,-1.37228 9.198975,-2.66951 1.016987,-1.29722 -2.997103,-2.03163 -1.365005,-2.85286 2.120451,-1.06696 -0.923051,-4.02821 1.511344,-5.00802 0.245283,-1.15323 1.701031,0.43815 4.76999,0.56429 3.06896,0.12619 15.712349,-5.23153 17.37922,-5.5304 2.695835,-0.48352 -2.67862,1.5383 -0.656765,0.91112 2.171329,-0.67361 0.184731,1.27225 2.374529,-0.15547 2.189797,-1.42766 4.8186,2.91829 7.034565,2.40656 2.208901,-0.51012 3.090819,-17.11276 5.352398,-17.26384 1.32031,-0.0882 2.87769,1.55692 5.240114,3.3671 2.362423,1.81018 14.067341,8.51546 15.388485,8.43871 1.327308,-0.0771 -3.599291,0.4638 -2.560478,-0.24479 1.038814,-0.70864 1.06454,-4.53984 2.353869,-4.68924 3.49684,-2.55493 15.755151,-2.40838 17.813497,-2.43812 4.1716494,-1.04172 1.4995026,5.30885 3.3586382,5.57508 2.2679976,0.32477 -2.3269474,-0.20671 0.7872195,-0.40852 1.276081,-0.0827 6.28110084,3.72227 8.5518338,3.654 2.270733,-0.0683 1.446741,-8.07054 2.7761181,-8.35843 4.7812214,-0.19715 1.2570437,-0.32254 2.9017037,-0.84457 1.2123789,-0.38482 0.9309256,0.31707 3.2268817,0.7988 2.295955,0.48172 13.996695,0.91944 15.521192,0.88528 1.964201,-0.0439 -2.910547,0.6055 -1.418694,0.602 1.491853,-0.004 -0.195588,0.65162 1.763784,0.76938 1.475806,0.0887 11.718612,0.85108 13.60367,0.97166 1.885057,0.12057 -3.236149,-1.42832 -1.75693,-1.42726 1.83164,0.001 9.440598,-2.63699 11.483812,-2.80966 3.208487,-1.49507 -1.060819,1.62064 0.428526,1.76107 1.91983,0.18102 1.540325,-0.97819 3.602624,-0.9259 1.6256,0.0412 7.934975,2.28541 9.555337,2.41694 2.051711,0.16655 -1.972642,0.0509 0.336777,0.21927 2.309418,0.16842 4.033948,-1.93729 6.05895,-1.56465 2.262858,0.41644 3.576092,-0.81264 5.90577,-0.46253 3.043341,-1.8812 15.936868,-1.50581 18.1289,-0.46607 2.0805,0.98684 -1.391325,5.7999 0.729782,6.49372 1.249164,0.4086 2.047809,8.51975 3.651234,9.57831 1.603419,1.05856 6.153189,-1.42035 7.531049,-1.39589 2.75573,0.0489 -0.73124,-4.47049 1.83422,-3.91355 2.00645,0.43561 -2.90948,3.49274 -0.41863,4.48572 1.24542,0.49649 8.40676,-3.57939 11.12331,-3.1863 2.71655,0.39309 -1.75026,6.41739 -0.78844,6.77736 2.15278,0.80568 7.58085,6.74448 9.66106,7.72434 2.16292,1.01878 1.50741,-1.20421 3.22401,-0.14179 1.7166,1.06242 0.45469,-0.196 2.47317,1.0678 2.05391,1.28598 10.99498,2.29506 13.1396,3.52252 0.15568,0.53129 -0.82077,2.06669 0.80379,2.26453 1.62455,0.19784 0.43347,-1.21946 1.94101,-0.44322 2.01549,-0.78742 2.85123,3.38422 4.53927,4.31193 1.68805,0.92772 6.44565,-5.23087 7.47548,-4.54541 4.22932,0.78377 10.55831,5.31754 12.01469,6.65457 3.79269,1.51679 -5.61849,2.68268 -4.49745,4.27274 1.26867,1.79946 9.97701,4.6693 12.15519,6.1045 1.08164,0.71268 -3.44488,0.73582 -2.5376,1.66112 0.23644,0.24109 0.25066,0.86351 0.54533,1.03978 2.15136,1.28683 1.05245,2.64422 3.24232,3.89736 1.23947,-0.57278 6.3381,-4.88665 8.59748,-3.35601 2.25938,1.53064 8.87923,10.65061 10.05681,11.68643 1.95597,1.72051 -2.10287,0.12895 -0.17686,1.33924 1.70015,1.06834 2.32987,2.00629 3.98393,2.38147 1.65406,0.37517 -0.97298,1.75824 0.90048,2.51685 1.72343,0.69784 12.44669,4.51492 14.55662,5.41825 2.10994,0.90332 -2.08056,-3.5475 -0.33839,-2.89795 2.14875,0.80115 2.70322,3.76539 4.66949,4.55717 3.14633,-1.05536 3.89898,-2.98499 5.61579,-1.96789 0.58685,2.68862 12.15873,3.94777 14.37856,4.53812 2.06383,0.54886 -1.59522,3.17583 0.54523,3.77679 2.39614,0.67275 1.66062,6.16883 4.2503,6.90261 1.3875,2.96493 8.57414,-1.35125 11.72115,-0.88263 0.59044,-1.37112 -2.22542,1.00216 1.41149,2.00256 1.41702,0.38978 0.68025,0.83314 2.44386,1.2898 1.76362,0.45665 10.87479,-1.24489 11.86945,-0.94636 1.78763,0.53644 -0.44669,-0.0742 1.69318,0.0991 1.23261,-1.49184 6.5545,5.27857 9.20615,5.87239 2.17952,0.48809 -1.23589,-0.50775 0.41976,-0.1845 1.12213,0.2191 3.11088,3.56751 4.60318,4.05876 1.49229,0.49125 0.87118,-4.38319 2.17557,-4.25055 1.64567,1.31087 7.56769,0.11277 9.11142,-0.57669 1.54373,-0.68945 -0.21937,-1.89311 0.96532,-2.07359 2.49681,-0.38037 5.20762,-0.16368 7.5339,0.14733 1.08193,0.14467 -1.20143,1.74865 0.12223,2.00134 1.32366,0.25269 8.1397,0.93845 9.27769,1.10166 3.85236,-0.29832 3.1743,2.66907 4.76058,2.94634 2.85662,1.85541 6.69335,-4.52095 8.65199,-4.3192 3.57142,-1.27563 2.14047,7.95209 3.95576,8.46348 1.95681,0.55125 -1.15755,-1.54806 1.40544,-1.29311 2.39257,0.238 2.05772,0.0694 4.48795,0.033 0.74288,-1.07736 10.30262,-0.25481 13.09871,-0.54704 2.79609,-0.29224 3.52764,-5.51683 5.01199,-5.25243 2.47021,0.44001 -0.68676,5.06223 1.49071,5.23728 1.02087,0.0821 4.31463,-2.6362 5.84367,-2.73733 1.52903,-0.10114 -0.85031,3.09234 0.30485,3.33576 4.10338,-0.0246 10.56066,3.72604 12.05285,4.25295 2.10125,0.74199 -2.56469,-4.52384 -0.18633,-4.23609 1.22828,0.14859 0.79561,0.55135 1.99579,0.88546 2.50739,0.6979 1.53924,-1.64903 4.06265,-0.89162 0.69041,-0.49581 10.32038,2.41008 13.28178,2.89234 2.9614,0.48225 3.13071,2.24914 4.78549,2.85783 4.68934,-1.51898 5.91095,-6.1708 7.92476,-5.11991 3.39945,-0.78401 3.48381,4.04026 5.84358,5.95764 -0.38826,0.80508 0.74682,2.0385 2.58073,2.60966 1.8339,0.57115 0.12486,0.3954 1.64909,1.25085 2.50208,1.40426 8.6434,1.2245 10.63239,2.10557 2.39268,1.05991 -1.31507,-0.67457 1.11824,1.40098 1.21666,1.03776 10.12497,4.0626 12.05854,6.78721 1.93357,2.72462 -6.37186,2.86852 -5.32689,3.66425 1.80934,1.37775 12.33565,4.39193 13.51061,5.37781 1.17495,0.98589 -3.04853,0.27779 -1.4597,1.89931 1.45986,1.48989 -0.4384,4.64411 0.41404,6.57584 0.51671,1.17091 1.3394,6.81708 1.3662,8.07213 0.041,1.91892 2.80881,-2.49709 2.22326,-0.66889 2.53929,-0.60102 1.02827,0.38563 3.54385,-0.2564 1.0002,0.80365 7.16866,3.08218 8.92268,1.99155 1.75401,-1.09063 3.52454,-3.3119 5.03678,-3.75777 0.62003,-1.79987 1.38035,-0.73796 3.04925,-1.3656 1.66891,-0.62764 0.8844,-1.13111 2.20044,-1.53879 3.75385,-2.27593 2.93217,-9.01884 4.55854,-9.53348 3.45843,-1.33905 6.50113,6.96146 8.36123,6.35324 1.76098,-2.65447 3.3514,-10.04286 5.77614,-10.83401 1.69211,1.26985 9.49551,3.03476 12.44868,1.92014 1.15182,1.3077 -3.87926,-3.7883 -0.68917,-5.32622 -0.17406,-1.33871 5.83844,1.53381 8.41824,0.6816 2.5798,-0.8522 6.21241,-2.28715 7.76915,-3.02038 3.19307,-3.61719 -1.38463,-4.13722 0.13205,-4.7742 1.65964,0.18397 8.26961,-1.05696 9.88925,-1.83268 1.61965,-0.77572 0.85672,1.31984 1.8587,0.79318 3.64312,-2.50437 5.41921,-2.92913 6.79138,-3.73903 2.05205,-1.21117 -4.74876,-2.09252 -2.27281,-4.13739 1.99466,-1.64739 1.63187,-0.38052 3.11086,-2.32317 -0.1654,-0.59185 5.61357,-6.49661 7.64103,-7.8046 2.02745,-1.30799 -0.28858,-0.22105 0.4468,-1.64436 3.43659,-0.20109 5.55812,-5.607 6.37617,-8.45359 -0.12641,-0.22811 -6.50992,-4.16802 -5.65693,-7.67314 -2.22993,-1.0787 -0.17552,0.48843 1.33751,-2.56857 0.62601,-1.26484 -0.069,-1.70429 2.14526,-4.05761 2.21428,-2.35332 11.71055,-1.20085 12.02619,-2.00481 0.45759,-1.16555 -6.1171,-5.66769 -5.92926,-8.01838 0.18785,-2.3507 0.90683,-4.82807 1.40142,-5.95988 0.80269,-4.04407 8.78716,-6.77623 9.49988,-8.29531 -0.53724,-2.73664 -2.12222,1.26354 -0.92025,-1.01731 0.21507,-0.2894 4.19349,-4.14932 4.7239,-6.92304 0.53041,-2.77372 0.95911,-6.90616 1.80318,-8.34245 0.0678,-4.66125 0.30143,-3.30799 1.17947,-4.70269 0.6058,-3.38334 -1.39272,-5.5632 -0.19022,-7.30249 3.29579,-1.60282 1.43063,1.83659 2.59465,0.20148 0.30731,-0.41192 0.006,-0.66342 0.87371,-2.76668 0.86796,-2.10327 -0.23912,-7.24755 0.66765,-8.5036 -0.37324,-2.05655 1.33194,-0.5432 3.16192,-1.36843 1.82999,-0.82522 10.7099,-0.90617 11.42088,-1.79092 3.032,-2.50429 1.64437,-2.39835 2.68183,-3.68483 2.57214,-0.61572 1.77693,-3.11315 3.19548,-5.23398 -0.93951,-3.08374 -3.72974,-3.58364 -2.00444,-5.73442 1.32785,0.22437 0.53127,-3.49411 1.55477,-6.03272 1.0235,-2.53861 10.15449,-1.84191 10.78121,-3.28034 1.03226,-2.36922 1.52186,-8.55298 2.52146,-10.60537 1.17334,-2.40912 -9.48135,-0.36693 -8.45519,-2.79211 -0.75899,-1.55062 7.58362,-7.54607 9.56209,-9.26153 1.97848,-1.71545 -2.78248,-2.99422 -2.28867,-4.27326 3.49051,-2.44191 9.7204,-0.96348 10.3784,-2.95781 2.25739,-1.19643 -2.05507,-7.4278 -1.38332,-10.36877 -0.8973,-0.71945 -1.23086,1.38143 -0.32523,0.56014 0.90564,-0.82129 -0.77353,-1.94793 -0.45624,-3.59651 1.52599,-0.42172 6.61034,-0.0417 6.97403,-2.66189 0.36368,-2.62019 -6.34518,-13.33679 -6.21063,-14.9745 1.28127,-4.59756 2.66115,2.22714 2.69146,0.68052 0.67343,-1.7224 -0.25864,-8.30624 -0.0977,-10.17677 0.16087,-1.87053 1.28152,-2.31811 1.13915,-3.44595 -0.0734,-4.49214 0.6891,-5.69711 0.33201,-7.28632 -0.50475,-2.24634 -1.55305,1.18951 -1.52705,-2.03737 0.009,-1.14946 4.80707,-4.2572 4.96531,-6.28572 0.15825,-2.02853 -1.21397,-1.25612 -1.40486,-2.53218 -0.64113,-4.28252 -6.15695,-13.74477 -6.31731,-15.37296 -0.70748,-4.06573 1.48086,-2.23314 2.19732,-3.81089 0.4127,-0.90883 -0.14818,-0.13395 1.31464,-0.50548 1.46282,-0.37154 8.70817,-0.0383 10.11952,-0.9477 1.0234,-0.65948 0.77261,-4.99758 1.74754,-6.10829 0.97493,-1.1107 3.08543,0.61191 4.18685,0.24371 2.66674,-2.85188 4.74484,1.30037 6.67811,1.03772 1.27431,0.81459 2.2875,2.64918 3.62413,2.43432 1.33664,-0.21486 -0.87219,-2.19609 0.31068,-2.27172 3.95196,0.64665 13.08362,-1.59535 14.66671,-1.75066 3.31316,-1.24783 -4.63079,0.44785 -2.86976,0.18126 0.33869,-0.37471 0.3856,-0.12779 2.35634,-1.17492 1.97074,-1.04713 4.59572,-8.72074 6.09889,-9.21639 2.17899,-0.71849 4.13982,3.77953 6.18871,2.3069 2.0554,-1.47731 4.93629,0.0885 6.79723,-1.63289 2.33053,0.39173 3.21625,-2.54961 5.25253,-5.08668 0.97301,0.24704 1.24454,-0.25874 1.17575,-1.96818 -0.0688,-1.70945 -3.99703,-3.63885 -3.04838,-5.23398 -1.00485,-1.68235 4.86598,0.13301 6.98997,-1.03502 2.12398,-1.16804 3.24936,-1.53164 3.97953,-2.83789 3.9457,-2.11203 -2.41353,-7.35706 -1.48524,-9.2477 1.25832,-0.49801 7.15182,0.66576 7.37791,-1.03811 0.22609,-1.70387 0.73432,-4.50212 1.27395,-5.97 -1.98107,-3.60279 0.93122,-2.45492 1.9735,-4.90659 0.14969,-0.26876 -5.20137,-2.84389 -4.61096,-5.7484 0.59041,-2.9045 1.58281,-3.68907 2.3155,-5.36953 1.41868,-5.06405 1.24555,-6.06507 1.81165,-7.16795 1.25726,-2.44946 10.29275,-3.03435 11.21008,-5.77974 0.77526,-2.32021 0.73952,-8.84659 1.48316,-11.21669 1.53544,-0.78623 1.35238,0.98645 0.84954,-0.53117 -0.50284,-1.51761 -1.09314,-1.60631 -0.84444,-2.91381 -0.7137,-4.20871 1.10093,-3.29592 1.35938,-4.97339 -0.36428,-3.69447 1.38625,-9.12521 1.61021,-10.94146 -0.63007,-0.75448 -1.40894,0.0604 -1.4101,-1.95599 -10e-4,-2.01638 -4.02366,-2.36577 -3.89207,-3.85083 0.20623,-2.32764 2.52923,-7.37619 1.89218,-9.83822 -0.33408,-1.29113 2.499,0.78118 2.5812,-0.69352 0.0822,-1.47471 1.48165,-4.17208 1.02546,-5.42746 0.66269,-4.32595 0.48301,-2.83498 -0.43331,-4.82175 0.27498,-4.01667 -1.939,-10.03509 -3.20393,-12.17881 -3.55788,-1.12673 -13.0647,4.50208 -14.62207,2.24216 -0.30083,-0.30801 -2.1011,-2.77418 -3.57713,-5.42868 -1.47602,-2.6545 -2.8918,-11.57005 -4.06519,-13.0358 -3.67988,-3.71446 1.90103,3.8233 0.92605,2.65245 -1.48211,-0.57444 -7.64353,-5.58874 -8.94686,-7.51633 -1.30333,-1.92759 0.78828,-4.49729 -0.0837,-5.54523 -2.66068,-3.85584 -1.81401,0.55183 -2.95954,-0.76781 -0.46922,-3.32263 1.61216,-5.62813 -0.50706,-7.42654 -0.54197,0.33611 -3.38606,-1.2196 -5.25442,-1.5619 -1.86835,-0.3423 -7.56915,0.73926 -8.94799,-0.60131 -1.95501,-1.90076 -1.17279,-2.11432 -2.96989,-3.74625 -1.96516,-1.78454 1.06721,-0.46018 -0.93985,-2.20817 -1.56315,0.27775 -9.31512,0.8469 -11.45896,-0.49779 -2.14384,-1.34468 1.72114,-1.9903 0.5792,-2.94913 -4.46393,-0.47001 -9.01248,-7.59427 -10.65295,-8.94605 -0.18922,-1.41904 1.22394,-1.31001 1.07105,-2.51889 -0.15289,-1.20889 2.69995,-6.43973 1.54716,-7.35952 0.0169,-3.6745 -6.98758,2.00781 -9.28487,0.24883 -0.21225,-0.34673 1.79224,-2.88805 0.30302,-3.37775 -1.48923,-0.4897 -3.95424,-2.45184 -5.43901,-3.53423 -3.20764,1.71063 -11.14614,2.22321 -13.79294,0.33336 -1.20557,0.623 2.39221,0.86585 1.23517,-1.28041 -1.15705,-2.14626 -7.7146,-4.27263 -9.11898,-5.2706 -2.86027,-4.07448 6.00874,-8.082855 4.6095,-9.068019 -0.52193,-1.387455 -1.23182,0.423535 -2.84215,-0.686224 -1.61033,-1.109759 -10.06609,-6.938921 -11.23561,-7.741144 -1.65492,-4.094648 4.20365,-0.688476 2.33548,-1.926359 -0.42676,-1.607227 -0.38576,-0.726012 -2.92219,-1.192555 -2.53643,-0.466543 -4.06712,-0.610317 -5.28897,-1.372328 -4.54984,-0.591707 -8.87448,-7.934073 -10.57973,-8.973036 -0.94836,-1.223994 0.61721,0.741233 -2.29631,-0.959877 -0.28125,0.05216 -3.51416,1.414129 -4.92931,-0.03526 -1.41516,-1.449389 -1.81907,-8.70525 -3.51124,-9.664641 0.10722,-4.142712 -7.11065,0.46928 -9.96215,-1.000083 -0.75486,0.558732 1.06177,0.521456 -1.21321,-0.159088 -2.27498,-0.680545 -10.29585,-3.637668 -11.94224,-4.46971 -5.11642,-0.231888 -1.74619,0.41394 -3.26377,-0.385099 -3.60443,-0.132882 0.24104,-0.05357 -1.87361,-1.289768 -0.50036,-0.146624 -5.46198,-2.993397 -6.98649,-4.639837 -1.52451,-1.64644 1.96603,-1.056546 0.4608,-2.03312 -0.38036,-4.4726 -1.30273,0.01336 -3.74354,-1.232341 -0.84602,0.519537 -1.1255,-0.250289 -2.75321,-2.037009 -1.62772,-1.786719 -2.53334,-3.152266 -4.05414,-4.01444 -0.016,-1.83507 -0.98468,-3.525842 -3.58224,-3.214048 -2.59756,0.311794 -8.3334,-3.63743 -9.90149,-4.067348 -2.80209,-0.768242 -6.46101,3.117897 -8.289,2.062023 -1.03883,-0.60005 -2.44569,-3.003161 -3.619,-3.994311 -1.17332,-0.99115 0.82564,0.727465 -0.24383,0.112933 -3.35571,-2.380701 -11.25043,-3.77877 -12.71753,-4.622218 -3.11363,-1.958848 3.68099,-1.582932 1.98752,-2.5655 -3.19408,-2.246949 -8.65191,-1.699083 -10.27241,-2.652936 -1.06365,-0.756169 -0.20177,-5.327477 -2.91782,-7.015809 -0.68077,0.533594 0.21091,1.900607 -0.84077,0.27106 -1.05167,-1.629546 -7.5907,-4.047875 -9.04881,-5.149164 -0.0321,-4.4280591 -0.38161,-9.0477381 -2.56702,-10.4381929 -0.28402,-2.9533627 1.27783,2.7422803 -1.50004,1.4337004 0.1875,-0.9638962 1.15313,-4.8917501 -1.59702,-6.2304323 -2.75015,-1.3386821 -12.73951,4.584056 -14.26728,3.98565097 -2.39754,-0.9390759 4.5864,-2.82978567 3.2955,-4.26444257 -0.84795,-0.942377 1.33929,-7.8846346 0.17108,-9.7931046 -1.1682,-1.90847 -4.25632,2.299577 -5.04789,1.323948 -2.13427,-3.599369 -5.70031,-10.690044 -6.71275,-12.021851 -10e-4,-1.197316 -0.61933,0.974231 -1.75965,-0.222536 -1.14032,-1.196766 -2.01551,-6.056287 -2.79436,-7.179477 -2.64748,-3.403847 -0.9486,-0.88692 -1.79683,-2.178855 -0.0149,-1.438917 2.37354,-1.430744 1.54316,-2.84163 -0.83038,-1.410885 -1.78253,-7.231067 -2.42263,-8.275356 -1.9643,-3.624517 -2.42221,1.581455 -3.23881,0.186516 -2.72949,-2.03531 -1.71278,-3.815818 -2.70776,-5.677378 -1.40282,-0.453541 -1.29307,-2.087268 -2.41685,-4.151747 -1.12379,-2.064479 -4.34229,-0.500962 -4.89023,-1.737118 -0.84432,-4.246113 -1.92265,-14.945947 -2.53057,-16.43768 -1.87235,-3.112799 -3.31409,6.383356 -3.96381,4.551297 0.39849,-1.484558 6.81073,-4.082751 5.84669,-7.057492 1.68672,-1.262367 -4.57165,0.619871 -5.87887,-2.651012 -0.36788,0.392342 2.10173,-11.43341 0.77583,-15.084594 -1.20251,0.268173 -11.89823,-3.520174 -13.30654,-6.118293 -1.40831,-2.598115 4.46047,-5.936495 4.21465,-7.711665 -0.38914,-2.81039 -2.74334,3.42445 -3.26299,1.6414 -0.36207,-1.24236 -2.28239,-0.69523 -2.60415,-2.51953 -0.32177,-1.82431 5.59274,-6.95025 5.22162,-8.21472 -0.64259,-4.34279 -0.17833,-5.19524 -0.69873,-6.93054 0.33591,-1.76423 -4.99034,0.15649 -6.18237,-1.14765 -1.19203,-1.30415 2.4412,-2.45967 2.06636,-3.63044 -1.59738,-4.0671 -0.10948,-8.0368 -0.71539,-9.83357 0.0644,-1.65961 0.72344,-3.24505 -0.46459,-6.38125 0.64191,-0.67921 -3.63906,-5.82083 -5.52377,-8.27482 -1.88471,-2.454 -6.59862,-1.60922 -7.38724,-3.35307 -2.55456,-4.61885 7.42489,-1.68251 6.78385,-3.0217 0.0699,-3.29798 0.48496,-4.8026 -0.83863,-7.17403 -0.0553,-1.01857 -6.78596,-9.91482 -8.89346,-13.04508 0.41697,-0.3693 -3.33281,4.77419 -5.63248,4.03901 -2.29966,-0.73517 -5.96667,-4.64419 -7.27897,-6.26424 -5.04774,-0.0847 2.00502,-1.78237 0.6548,-3.80521 -1.52255,-0.25545 -5.43036,1.30468 -6.06884,-0.84032 -0.63848,-2.145 -0.31301,-3.56484 -0.98867,-4.99027 0.41249,-4.83839 2.07915,-5.21821 0.80614,-6.59708 -1.82804,-1.98002 -14.14892,-6.58405 -16.05716,-8.52775 -0.84374,-0.85941 6.98998,-2.25809 6.60518,-3.76662 -0.38481,-1.50854 -8.06954,-5.33565 -9.04168,-6.11058 -2.8602,-3.48416 0.17789,-2.57082 -1.47829,-3.01952 -2.20684,-0.59787 -5.67233,8.69026 -8.73557,8.82831 -2.56299,0.1157 -8.54502,-1.60771 -10.76208,-0.78483 -0.64384,1.53431 1.33163,3.02258 0.18525,3.23012 -1.14638,0.20753 -5.71454,-1.75988 -6.69847,-1.22542 -3.5711,1.59101 -5.11716,2.48618 -6.44782,3.32963 -3.24707,1.66506 2.74311,-0.26765 1.26214,0.74191 -0.34713,0.20559 -2.82917,5.51511 -4.04108,7.26755 -1.21191,1.75244 -1.54682,-2.13367 -3.0562,-1.39299 -2.15939,1.05966 -1.63686,4.45967 -4.1429,5.02617 -2.48356,0.56141 -0.4437,-5.52162 -2.95175,-5.00055 -1.21682,-0.89217 -1.8538,1.58073 -5.14331,2.19947 -0.25063,-0.33321 -4.20924,4.00877 -7.62471,3.72057 -3.41548,-0.2882 -4.16054,-2.70305 -5.97907,-2.39376 -2.03048,-1.35361 -2.6053,-3.66979 -4.39049,-3.20242 -1.78519,0.46736 -6.56463,-2.37099 -7.60619,-2.19686 -3.86657,1.00487 -0.2896,8.42793 -2.17153,8.73483 -3.28149,1.84908 -5.40815,1.49918 -7.5172,1.82436 -3.99582,-0.33329 -4.84533,-1.4447 -6.78728,-1.15714 -3.39545,1.80378 -5.1884,7.21193 -7.27266,7.49583 -1.50451,1.85371 -2.37176,-2.9573 -5.41245,-2.6252 -0.46811,1.12821 -9.88133,4.29513 -12.08145,4.99011 -2.20012,0.69498 -0.51237,1.85213 -2.21128,1.96444 -0.62784,1.46424 -3.57983,4.57017 -6.15575,4.2392 -2.57592,-0.33096 -7.53685,-1.291 -9.22609,-1.27891 -4.67436,1.55358 -1.27979,-0.93214 -2.97662,-0.97759 -3.7728,-0.60416 -6.6112,-5.01679 -8.72139,-5.14438 -1.72998,1.29671 1.07495,-1.08603 -2.16907,-1.48396 -0.21859,-0.91707 0.0221,2.22565 -2.89724,3.27306 -2.91934,1.04742 -6.96909,5.59648 -8.76124,5.37719 -4.23786,2.5396 -6.66266,-12.84369 -8.71171,-13.22791 -0.6377,-0.9317 -4.28205,4.62555 -6.28331,4.46106 -2.00126,-0.1645 -4.40503,-1.32 -5.91241,-1.57862 -3.76479,-2.77261 2.22332,-1.09249 0.41444,-1.16814 -1.11707,-0.58491 -11.84362,0.69758 -15.16976,0.88525 -2.64449,0.14922 2.61357,-0.76928 0.23714,-0.96891 -1.21131,-0.10177 -0.7599,-1.18453 -2.89285,-0.81373 -2.13295,0.37079 -12.21087,3.27454 -13.56599,3.05552 -4.58692,0.32889 3.83039,0.15765 1.86622,-0.39498 -1.05953,0.38234 -8.79341,-2.4869 -11.21889,-4.25009 -2.42548,-1.76319 1.3673,-6.17419 -0.18216,-7.144 -3.32259,-4.28496 -2.55149,0.80001 -3.84982,0.0157 -1.1005,-0.66476 -4.53732,2.58712 -5.7659,1.35559 -1.22858,-1.23154 -6.07984,-5.56375 -6.98702,-6.925 -1.22172,-1.8332 5.44681,-10.97268 4.66339,-12.91622 -1.15254,-3.37102 -7.0427,3.10114 -7.44389,1.84789 -0.18654,-3.06955 3.38059,-3.22174 2.81812,-4.71279 -2.11634,-0.99268 2.87768,-5.56371 2.01477,-7.74628 -0.71841,-1.8171 -2.90004,-0.42178 -4.59477,-2.21199 -0.89152,-0.94176 -9.66299,-6.35839 -11.37665,-8.05977 -1.71365,-1.70138 4.0883,-0.34852 3.12571,-1.22334 -2.12569,-3.7751 -2.95547,-0.29898 -4.42803,-1.48811 -0.93217,-1.66484 -0.63595,-2.41476 -2.51077,-3.44857 -1.874824,-1.03381 -2.741741,-3.13083 -3.672769,-3.77251 -3.959279,-1.19261 -11.09115,-1.36486 -12.818457,-2.40812 -0.462967,-0.59267 -0.340299,-1.5532 -1.317785,-3.34465 -0.977486,-1.79145 -0.04581,-9.36717 -1.570054,-10.08695 -1.396042,-4.35249 0.350072,3.85027 -2.209387,2.97668 -0.729007,-1.03436 -0.522495,-1.65155 -4.279838,-2.40271 -2.48e-4,0.0435 -8.444784,-2.73477 -11.202966,-2.41932 -2.758181,0.31545 0.797048,3.17128 -1.271206,2.93127 -0.778241,1.64479 -9.625823,-1.04849 -12.63173,-1.47253 -3.005907,-0.42404 -5.509802,1.73388 -7.182257,1.46096 -4.811583,0.83945 1.416453,-1.1694 -0.209517,-1.51484 -0.683934,-0.2836 -0.154109,2.10708 -1.937201,2.56508 -1.783091,0.45801 -5.598625,2.82965 -7.132773,2.49998 -1.665293,1.25877 -2.103124,-4.5955 -3.659856,-5.27635 -1.556733,-0.68086 -7.998176,2.44254 -9.227545,1.86698 -1.16715,-0.54643 3.1482,-1.51957 2.613229,-3.25859 -0.53497,-1.73903 -3.559336,-9.03642 -4.667871,-8.99588 -2.669342,0.0976 -3.32034,-2.18811 -5.968724,-1.98367 -1.9109944,-2.11225 -10.85877509,4.59089 -13.9937473,4.99016 -0.6300948,-0.888 4.09355893,-1.80619 2.99663151,-2.27667 -1.09692731,-0.47048 -1.94767011,-0.27542 -3.70243531,0.0461 -1.9845679,-2.69156 -4.8676679,3.18352 -8.1858519,3.97522 -0.585496,-0.75793 -1.308496,-0.96941 -4.521433,-1.17351 -3.212937,-0.2041 -4.871363,-6.19402 -6.688035,-5.65729 -5.151073,-0.76363 -2.018748,5.40764 -3.639925,5.93021 -0.896596,1.15515 -8.10707,6.71016 -10.016965,7.66836 -1.909895,0.95819 -5.047495,-3.42135 -6.391262,-2.9449 -0.889561,1.80936 0.978541,1.15256 -0.347165,0.96845 -1.325706,-0.18411 -2.232194,2.66823 -3.42117,3.10309 -4.137005,-0.66625 -1.363668,3.04242 -3.389288,3.81669 -1.10054,2.40018 -1.29697,-0.95445 -4.12362,0.13952 -0.276012,2.0753 -1.678467,2.12847 -4.942119,3.3398 -4.82e-4,1.13162 -11.336944,-0.40774 -15.102421,0.55532 -3.765477,0.96306 2.000279,8.15051 0.26958,8.72647 -4.975481,0.91693 -5.770846,-5.15598 -7.179147,-4.69888 -1.578007,0.9046 -5.496656,-0.11537 -7.309916,0.63915 -1.813259,0.75453 1.082389,5.36771 0.02639,5.68863 -4.146733,0.57971 -2.156438,0.39002 -3.973996,0.92836 -1.235122,1.25672 -15.607468,-4.54488 -18.723468,-3.7335 -0.97758,-1.12184 0.56884,4.86581 0.21636,6.70024 -0.35248,1.83443 0.37003,1.07494 -1.22953,1.63124 -0.10046,1.43629 2.14255,5.37294 0.66927,6.48842 -1.47328,1.11549 -10.62245,1.64784 -12.34195,2.01028 -0.70599,1.80911 2.24102,3.42155 1.14769,3.59799 -1.09332,0.17645 -4.51743,0.66661 -6.11285,0.54203 -2.79589,-0.21832 2.39481,-8.46676 0.34552,-7.93904 -0.0875,1.25824 0.24708,3.40643 -0.28206,5.07225 -0.52915,1.66582 -7.78675,0.82604 -8.3387,1.93521 0.36163,1.95616 -2.47219,6.93499 -3.45078,8.59207 -0.9786,1.65708 4.61132,3.10823 3.57529,3.9839 -2.62077,3.87389 -12.8107,0.32614 -14.75313,1.1122 -2.94782,-1.0729 0.79948,4.55331 -1.70273,5.50934 -2.34841,0.89727 -0.0301,-0.3768 -2.37876,-0.0464 -2.5489,0.35859 -1.02597,-0.67175 -3.63701,-0.52332 -1.42559,2.09101 -14.04279,-6.56462 -17.35134,-6.73992 -0.45901,-1.19669 0.19763,0.74367 -1.85187,1.99423 -2.04949,1.25055 0.18157,5.28867 -1.56,5.1134 -4.54393,1.99197 -5.27796,5.23062 -7.17298,4.92852 -1.96553,0.35563 -1.44254,-2.65152 -3.09885,-4.11299 -1.65631,-1.46147 -11.84483,-7.56967 -12.94658,-7.84902 -3.31789,-2.58086 3.50963,2.96094 1.4904,2.40394 -0.79862,0.34381 -7.51206,3.16486 -10.10844,1.99307 -2.59638,-1.17179 0.0872,-10.25896 -1.50687,-10.85864 -4.16707,-3.09373 -2.63069,-0.6233 -4.05868,-0.92601 -2.38414,-0.50539 -16.6206,6.37583 -19.56108,5.31681 -2.25334,-0.81155 8.09599,-2.76741 5.88699,-3.80325 -0.49974,-1.56296 -0.52214,-2.29337 -2.17614,-3.51601 -1.654,-1.22264 -2.64393,-7.15547 -3.79007,-7.68574 -0.97396,-1.74271 -8.73762,2.39854 -10.59629,2.38674 -1.85867,-0.0118 1.92196,-1.41109 0.99621,-1.74962 -2.07154,-0.75747 -1.75739,-0.18948 -3.1531,-2.4044 -1.29234,-2.05091 -2.03765,-0.53719 -2.27767,-2.75067 1.27738,-0.92563 -5.26232,-0.85181 -4.86301,-3.73105 -1.81919,-1.09621 9.49507,-11.7757 10.50607,-14.86778 0.84468,0.12022 -6.75539,3.331 -8.0318,1.49808 -1.27641,-1.83291 -0.59682,-3.11044 -0.34411,-4.7895 0.39886,-2.65012 4.88681,-3.73627 5.0182,-5.39797 0.10989,-1.38986 -0.68888,-9.95359 -1.10996,-12.16771 -0.42108,-2.21412 -2.82938,3.54678 -3.22195,2.34854 -0.14956,-4.53976 -5.42532,-1.50262 -6.65097,-2.89118 -3.36516,-1.10116 -4.30813,-5.17764 -6.04102,-6.47592 -1.84389,-1.38145 -6.02217,-6.95396 -8.55744,-7.85562 -1.1222,-0.39911 1.62053,0.17663 0.53003,-0.24711 -1.09051,-0.42374 -0.79994,-3.79694 -1.94608,-4.1093 -3.95526,-0.53163 -7.15466,-0.66775 -8.67585,-1.0195 -0.99584,0.42657 1.56181,3.08391 -0.0631,3.35248 -1.62495,0.26857 -2.97198,1.78947 -4.28178,1.50829 -4.01549,1.32351 -1.39538,-7.11784 -3.14739,-7.677 -1.09643,-2.19928 -2.41138,0.97508 -5.15488,0.80425 -1.16324,-0.0724 -2.51512,-2.47355 -5.18094,-3.12254 -2.66582,-0.64899 -5.64499,5.87924 -6.86612,5.8711 z"
       id="path871" />
    <text
       xml:space="preserve"
       style="font-size:50.8px;line-height:1.25;font-family:'Berlin Sans FB';-inkscape-font-specification:'Berlin Sans FB';letter-spacing:0px;word-spacing:0px;writing-mode:lr-tb;stroke-width:0.264583"
       x="-1016.7559"
       y="1403.0475"
       id="text1030"><tspan
         sodipodi:role="line"
         id="tspan1028"
         x="-1016.7559"
         y="1403.0475"
         style="writing-mode:lr-tb;stroke-width:0.264583" /></text>
  </g>
</svg>
