<?xml version="1.0" encoding="UTF-8"?>
<svg width="504mm" height="504mm" version="1.1" viewBox="0 0 504 504" xmlns="http://www.w3.org/2000/svg"
    xmlns:cc="http://creativecommons.org/ns#" xmlns:dc="http://purl.org/dc/elements/1.1/"
    xmlns:rdf="http://www.w3.org/1999/02/22-rdf-syntax-ns#">
    <g id="board">
        <rect x="2.0" y="2" width="100" height="100" fill="#ccc" stroke="#000" stroke-width="4" />
        <rect x="102" y="2" width="100" height="100" fill="#ccc" stroke="#000" stroke-width="4" />
        <rect x="202" y="2" width="100" height="100" fill="#ccc" stroke="#000" stroke-width="4" />
        <rect x="302" y="2" width="100" height="100" fill="#ccc" stroke="#000" stroke-width="4" />
        <rect x="402" y="2" width="100" height="100" fill="#ccc" stroke="#000" stroke-width="4" />
        <rect x="2.0" y="102" width="100" height="100" fill="#ccc" stroke="#000" stroke-width="4" />
        <rect x="102" y="102" width="100" height="100" fill="#ccc" stroke="#000" stroke-width="4" />
        <rect x="202" y="102" width="100" height="100" fill="rgb(94, 147, 184)" stroke="#000" stroke-width="4" />
        <rect x="302" y="102" width="100" height="100" fill="#ccc" stroke="#000" stroke-width="4" />
        <rect x="402" y="102" width="100" height="100" fill="#ccc" stroke="#000" stroke-width="4" />
        <rect x="2.0" y="202" width="100" height="100" fill="#ccc" stroke="#000" stroke-width="4" />
        <rect x="102" y="202" width="100" height="100" fill="rgb(94, 147, 184)" stroke="#000" stroke-width="4" />
        <rect x="202" y="202" width="100" height="100" fill="rgb(94, 147, 184)" stroke="#000" stroke-width="4" />
        <rect x="302" y="202" width="100" height="100" fill="rgb(94, 147, 184)" stroke="#000" stroke-width="4" />
        <rect x="402" y="202" width="100" height="100" fill="#ccc" stroke="#000" stroke-width="4" />
        <rect x="2.0" y="302" width="100" height="100" fill="#ccc" stroke="#000" stroke-width="4" />
        <rect x="102" y="302" width="100" height="100" fill="#ccc" stroke="#000" stroke-width="4" />
        <rect x="202" y="302" width="100" height="100" fill="rgb(94, 147, 184)" stroke="#000" stroke-width="4" />
        <rect x="302" y="302" width="100" height="100" fill="#ccc" stroke="#000" stroke-width="4" />
        <rect x="402" y="302" width="100" height="100" fill="#ccc" stroke="#000" stroke-width="4" />
        <rect x="2.0" y="402" width="100" height="100" fill="#ccc" stroke="#000" stroke-width="4" />
        <rect x="102" y="402" width="100" height="100" fill="#ccc" stroke="#000" stroke-width="4" />
        <rect x="202" y="402" width="100" height="100" fill="#ccc" stroke="#000" stroke-width="4" />
        <rect x="302" y="402" width="100" height="100" fill="#ccc" stroke="#000" stroke-width="4" />
        <rect x="402" y="402" width="100" height="100" fill="#ccc" stroke="#000" stroke-width="4" />
    </g>
</svg>