<?xml version="1.0" encoding="UTF-8"?>
<svg width="504mm" height="504mm" version="1.1" viewBox="0 0 504 504" xmlns="http://www.w3.org/2000/svg"
    xmlns:cc="http://creativecommons.org/ns#" xmlns:dc="http://purl.org/dc/elements/1.1/"
    xmlns:rdf="http://www.w3.org/1999/02/22-rdf-syntax-ns#">
    <g id="board">
        <rect x="2.0" y="2" width="100" height="100" fill="#ccc" stroke="#000" stroke-width="4" />
        <rect x="102" y="2" width="100" height="100" fill="#ccc" stroke="#000" stroke-width="4" />
        <rect x="202" y="2" width="100" height="100" fill="#ccc" stroke="#000" stroke-width="4" />
        <rect x="302" y="2" width="100" height="100" fill="#ccc" stroke="#000" stroke-width="4" />
        <rect x="402" y="2" width="100" height="100" fill="#ccc" stroke="#000" stroke-width="4" />
        <rect x="2.0" y="102" width="100" height="100" fill="#ccc" stroke="#000" stroke-width="4" />
        <rect x="102" y="102" width="100" height="100" fill="#ccc" stroke="#000" stroke-width="4" />
        <rect x="202" y="102" width="100" height="100" fill="rgb(94, 147, 184)" stroke="#000" stroke-width="4" />
        <rect x="302" y="102" width="100" height="100" fill="#ccc" stroke="#000" stroke-width="4" />
        <rect x="402" y="102" width="100" height="100" fill="#ccc" stroke="#000" stroke-width="4" />
        <rect x="2.0" y="202" width="100" height="100" fill="#ccc" stroke="#000" stroke-width="4" />
        <rect x="102" y="202" width="100" height="100" fill="rgb(94, 147, 184)" stroke="#000" stroke-width="4" />
        <rect x="202" y="202" width="100" height="100" fill="rgb(94, 147, 184)" stroke="#000" stroke-width="4" />
        <rect x="302" y="202" width="100" height="100" fill="rgb(94, 147, 184)" stroke="#000" stroke-width="4" />
        <rect x="402" y="202" width="100" height="100" fill="#ccc" stroke="#000" stroke-width="4" />
        <rect x="2.0" y="302" width="100" height="100" fill="#ccc" stroke="#000" stroke-width="4" />
        <rect x="102" y="302" width="100" height="100" fill="#ccc" stroke="#000" stroke-width="4" />
        <rect x="202" y="302" width="100" height="100" fill="rgb(94, 147, 184)" stroke="#000" stroke-width="4" />
        <rect x="302" y="302" width="100" height="100" fill="#ccc" stroke="#000" stroke-width="4" />
        <rect x="402" y="302" width="100" height="100" fill="#ccc" stroke="#000" stroke-width="4" />
        <rect x="2.0" y="402" width="100" height="100" fill="#ccc" stroke="#000" stroke-width="4" />
        <rect x="102" y="402" width="100" height="100" fill="#ccc" stroke="#000" stroke-width="4" />
        <rect x="202" y="402" width="100" height="100" fill="#ccc" stroke="#000" stroke-width="4" />
        <rect x="302" y="402" width="100" height="100" fill="#ccc" stroke="#000" stroke-width="4" />
        <rect x="402" y="402" width="100" height="100" fill="#ccc" stroke="#000" stroke-width="4" />
    </g>

    <rect x="412" y="12" width="80" height="80" fill="rgb(200, 190, 183)" />
    <path d="M 421 52 h 62" fill="transparent" stroke="rgb(72, 62, 55)" stroke-width="6" stroke-linecap="round" />
    <path d="M 452 21 v 62" fill="transparent" stroke="rgb(72, 62, 55)" stroke-width="6" stroke-linecap="round" />

    <rect x="112" y="12" width="80" height="80" fill="rgb(200, 190, 183)" />
    <circle cx="152" cy="52" r="27" fill="transparent" stroke="rgb(72, 62, 55)" stroke-width="6"
        stroke-linecap="round" />

    <rect x="212" y="12" width="80" height="80" fill="rgb(200, 190, 183)" />
    <path d="M 221 52 h 62" fill="transparent" stroke="rgb(72, 62, 55)" stroke-width="6" stroke-linecap="round" />
    <path d="M 252 21 v 62" fill="transparent" stroke="rgb(72, 62, 55)" stroke-width="6" stroke-linecap="round" />
    <circle cx="252" cy="52" r="27" fill="transparent" stroke="rgb(72, 62, 55)" stroke-width="6"
        stroke-linecap="round" />
    <path d="M 224 24 l 56 56" fill="transparent" stroke="rgb(72, 62, 55)" stroke-width="6" stroke-linecap="round" />
    <path d="M 280 24 l -56 56" fill="transparent" stroke="rgb(72, 62, 55)" stroke-width="6" stroke-linecap="round" />

    <rect x="312" y="12" width="80" height="80" fill="rgb(200, 190, 183)" />
    <circle cx="352" cy="52" r="27" fill="transparent" stroke="rgb(72, 62, 55)" stroke-width="6"
        stroke-linecap="round" />

    <rect x="12" y="12" width="80" height="80" fill="rgb(200, 190, 183)" />
    <path d="M 24 24 l 56 56" fill="transparent" stroke="rgb(72, 62, 55)" stroke-width="6" stroke-linecap="round" />
    <path d="M 80 24 l -56 56" fill="transparent" stroke="rgb(72, 62, 55)" stroke-width="6" stroke-linecap="round" />


    <rect x="112" y="212" width="80" height="80" fill="rgb(96, 133, 157)" />
    <path d="M 121 252 h 62" fill="transparent" stroke="rgb(34, 44, 47)" stroke-width="6" stroke-linecap="round" />
    <path d="M 152 221 v 62" fill="transparent" stroke="rgb(34, 44, 47)" stroke-width="6" stroke-linecap="round" />

    <rect x="312" y="212" width="80" height="80" fill="rgb(96, 133, 157)" />
    <path d="M 324 224 l 56 56" fill="transparent" stroke="rgb(34, 44, 47)" stroke-width="6" stroke-linecap="round" />
    <path d="M 380 224 l -56 56" fill="transparent" stroke="rgb(34, 44, 47)" stroke-width="6" stroke-linecap="round" />



    <rect x="412" y="412" width="80" height="80" fill="rgb(72, 62, 55)" />
    <path d="M 421 452 h 62" fill="transparent" stroke="rgb(200, 190, 183)" stroke-width="6" stroke-linecap="round" />
    <path d="M 452 421 v 62" fill="transparent" stroke="rgb(200, 190, 183)" stroke-width="6" stroke-linecap="round" />

    <rect x="112" y="412" width="80" height="80" fill="rgb(72, 62, 55)" />
    <circle cx="152" cy="452" r="27" fill="transparent" stroke="rgb(200, 190, 183)" stroke-width="6"
        stroke-linecap="round" />

    <rect x="212" y="412" width="80" height="80" fill="rgb(72, 62, 55)" />
    <path d="M 221 452 h 62" fill="transparent" stroke="rgb(200, 190, 183)" stroke-width="6" stroke-linecap="round" />
    <path d="M 252 421 v 62" fill="transparent" stroke="rgb(200, 190, 183)" stroke-width="6" stroke-linecap="round" />
    <circle cx="252" cy="452" r="27" fill="transparent" stroke="rgb(200, 190, 183)" stroke-width="6"
        stroke-linecap="round" />
    <path d="M 224 424 l 56 56" fill="transparent" stroke="rgb(200, 190, 183)" stroke-width="6" stroke-linecap="round" />
    <path d="M 280 424 l -56 56" fill="transparent" stroke="rgb(200, 190, 183)" stroke-width="6" stroke-linecap="round" />

    <rect x="312" y="412" width="80" height="80" fill="rgb(72, 62, 55)" />
    <circle cx="352" cy="452" r="27" fill="transparent" stroke="rgb(200, 190, 183)" stroke-width="6"
        stroke-linecap="round" />

    <rect x="12" y="412" width="80" height="80" fill="rgb(72, 62, 55)" />
    <path d="M 24 424 l 56 56" fill="transparent" stroke="rgb(200, 190, 183)" stroke-width="6" stroke-linecap="round" />
    <path d="M 80 424 l -56 56" fill="transparent" stroke="rgb(200, 190, 183)" stroke-width="6" stroke-linecap="round" />

</svg>