<?xml version="1.0" encoding="UTF-8" standalone="no"?>
<svg xmlns:dc="http://purl.org/dc/elements/1.1/" xmlns:cc="http://creativecommons.org/ns#"
   xmlns:rdf="http://www.w3.org/1999/02/22-rdf-syntax-ns#" xmlns:svg="http://www.w3.org/2000/svg"
   xmlns="http://www.w3.org/2000/svg" width="223mm" height="243mm" viewBox="0 0 446 486" version="1.1">
   <path fill="#555555"
      d="M 4 112 l 59 337 c 5 22 25 37 47 37 c 0 0 0 0 0 0 h 227 c 22 0 41 -16 47 -37 v 0 l 59 -337 z m 219 58 c 8 0 13 6 13 13 v 218 c 0 7 -5 13 -13 13 c -7 0 -13 -6 -13 -13 v -218 c 0 -7 6 -13 13 -13 z m -105 0 c 7 0 13 6 13 12 l 19 218 c 1 7 -4 13 -12 14 c -7 0 -13 -5 -14 -12 l -19 -217 c -1 -8 5 -14 12 -15 c 1 0 1 0 1 0 z m 210 0 c 0 0 0 0 1 0 c 7 1 13 7 12 15 l -19 217 c -1 7 -7 12 -14 12 c -8 -1 -13 -7 -12 -14 l 19 -218 c 0 -6 6 -12 13 -12 z" />
   <path fill="#555555"
      d="m 200,0 c -7,0 -13,6 -13,13 V 30 L 13,45 A 15,15 0 0 0 0,60 v 0 29 H 446 v -29 0 a 15,15 0 0 0 -13,-15 l -173,-15 V 13 c 0,-7 -5,-13 -12,-13 z" />
</svg>