<?xml version="1.0" encoding="UTF-8" standalone="no"?>
<svg
   xmlns:dc="http://purl.org/dc/elements/1.1/"
   xmlns:cc="http://creativecommons.org/ns#"
   xmlns:rdf="http://www.w3.org/1999/02/22-rdf-syntax-ns#"
   xmlns:svg="http://www.w3.org/2000/svg"
   xmlns="http://www.w3.org/2000/svg"
   width="177.91901mm"
   height="189.03699mm"
   viewBox="0 0 177.91901 189.03699"
   version="1.1"
   id="svg8">
  <defs
     id="defs2" />
  <metadata
     id="metadata5">
    <rdf:RDF>
      <cc:Work
         rdf:about="">
        <dc:format>image/svg+xml</dc:format>
        <dc:type
           rdf:resource="http://purl.org/dc/dcmitype/StillImage" />
        <dc:title></dc:title>
      </cc:Work>
    </rdf:RDF>
  </metadata>
  <g
     id="layer1"
     transform="translate(26.497,-51.963087)">
    <path
       id="path835"
       style="fill:#494949;stroke:none;stroke-width:15.1506;fill-opacity:1"
       d="M 117.16406 226.91211 L 176.23242 563.66016 C 180.83314 585.5237 200.63812 601.08344 222.98047 601.08398 C 223.05667 601.08416 223.13281 601.08416 223.20898 601.08398 L 449.75195 601.08398 C 472.07651 601.08462 491.35448 585.45845 495.97461 563.61719 L 496.2168 563.66016 L 555.28516 226.91211 C 338.17233 227.30375 199.92457 226.92211 117.16406 226.91211 z M 336.22461 284.86328 C 343.55311 284.86328 349.45313 290.76329 349.45312 298.0918 L 349.45312 516.0918 C 349.45312 523.4203 343.55311 529.32031 336.22461 529.32031 C 328.89611 529.32031 322.99609 523.4203 322.99609 516.0918 L 322.99609 298.0918 C 322.99609 290.76329 328.89611 284.86328 336.22461 284.86328 z M 231.43359 285.27539 C 238.15366 285.36505 243.8094 290.50723 244.4082 297.35156 L 263.4082 514.52344 C 264.04692 521.82405 258.68343 528.21479 251.38281 528.85352 C 244.0822 529.49224 237.69146 524.12874 237.05273 516.82812 L 218.05273 299.6582 C 217.41401 292.35759 222.77556 285.96489 230.07617 285.32617 C 230.53246 285.28625 230.98559 285.26941 231.43359 285.27539 z M 440.53125 285.27734 C 440.97925 285.27137 441.43238 285.2882 441.88867 285.32812 C 449.18929 285.96685 454.55083 292.35759 453.91211 299.6582 L 434.91211 516.83008 C 434.27339 524.13069 427.88265 529.49419 420.58203 528.85547 C 413.2814 528.21675 407.91792 521.82405 408.55664 514.52344 L 427.55664 297.35352 C 428.15544 290.50919 433.81118 285.36701 440.53125 285.27734 z "
       transform="matrix(0.26458333,0,0,0.26458333,-26.497,51.963087)" />
    <path
       id="rect862"
       style="fill:#494949;stroke:none;stroke-width:15.1044;fill-opacity:1"
       d="M 311.88086 115.38672 C 304.88555 115.38672 299.25391 121.01837 299.25391 128.01367 L 299.25391 144.9375 L 126.24414 160.07227 A 14.89975 14.89975 0 0 0 113.38672 174.83008 A 14.89975 14.89975 0 0 0 113.39648 175.35742 L 113.38672 175.35742 L 113.38672 203.625 L 559.06445 203.625 L 559.06445 175.35742 L 559.03125 175.35742 A 14.89975 14.89975 0 0 0 559.04297 174.83008 A 14.89975 14.89975 0 0 0 546.1543 160.06836 L 373.19531 144.9375 L 373.19531 128.01367 C 373.19531 121.01837 367.56366 115.38672 360.56836 115.38672 L 311.88086 115.38672 z "
       transform="matrix(0.26458333,0,0,0.26458333,-26.497,51.963087)" />
  </g>
</svg>
